<mxfile host="app.diagrams.net" agent="Mozilla/5.0 (Windows NT 10.0; Win64; x64) AppleWebKit/537.36 (KHTML, like Gecko) Chrome/133.0.0.0 Safari/537.36 Edg/133.0.0.0" version="26.0.10">
  <diagram name="Page-1" id="uxKXAAT4Okbxyfr-RrzW">
    <mxGraphModel dx="7700" dy="3142" grid="1" gridSize="10" guides="1" tooltips="1" connect="1" arrows="1" fold="1" page="1" pageScale="1" pageWidth="827" pageHeight="1169" math="0" shadow="0">
      <root>
        <mxCell id="0" />
        <mxCell id="1" parent="0" />
        <mxCell id="YEOKFHbXna3Mkj-zAs45-436" value="" style="shape=folder;fontStyle=1;spacingTop=10;tabWidth=185;tabHeight=25;tabPosition=left;html=1;whiteSpace=wrap;fontFamily=Helvetica;fontSize=11;fontColor=default;labelBackgroundColor=default;strokeColor=#66B2FF;strokeWidth=2;perimeterSpacing=0;shadow=1;" vertex="1" parent="1">
          <mxGeometry x="-3855" y="-175" width="905" height="550" as="geometry" />
        </mxCell>
        <mxCell id="YEOKFHbXna3Mkj-zAs45-437" value="" style="shape=folder;fontStyle=1;spacingTop=10;tabWidth=480;tabHeight=30;tabPosition=left;html=1;whiteSpace=wrap;shadow=1;strokeColor=#99CCFF;strokeWidth=2;perimeterSpacing=0;" vertex="1" parent="1">
          <mxGeometry x="-2720" y="-410" width="1400" height="1020" as="geometry" />
        </mxCell>
        <mxCell id="YEOKFHbXna3Mkj-zAs45-438" value="" style="shape=folder;fontStyle=1;spacingTop=10;tabWidth=550;tabHeight=31;tabPosition=left;html=1;whiteSpace=wrap;strokeWidth=2;strokeColor=#E5CCFF;shadow=1;" vertex="1" parent="1">
          <mxGeometry x="-960" y="39" width="2600" height="1130" as="geometry" />
        </mxCell>
        <mxCell id="YEOKFHbXna3Mkj-zAs45-439" value="Cliente" style="swimlane;fontStyle=1;align=center;verticalAlign=top;childLayout=stackLayout;horizontal=1;startSize=26;horizontalStack=0;resizeParent=1;resizeParentMax=0;resizeLast=0;collapsible=1;marginBottom=0;whiteSpace=wrap;html=1;fontFamily=Helvetica;" vertex="1" parent="1">
          <mxGeometry x="150" y="290" width="630" height="260" as="geometry" />
        </mxCell>
        <mxCell id="YEOKFHbXna3Mkj-zAs45-440" value="- ID : int&lt;div&gt;&lt;div&gt;- data_de_cadastro : str&lt;/div&gt;&lt;div&gt;- data_de_nascimento : str&lt;/div&gt;&lt;div&gt;- sexo : str&lt;/div&gt;&lt;div&gt;- nome : str&lt;/div&gt;&lt;div&gt;- senha : str&amp;nbsp;&lt;/div&gt;&lt;div&gt;- cpf : str&lt;/div&gt;&lt;div&gt;- rg : str&lt;/div&gt;&lt;div&gt;- profissão : str&lt;/div&gt;&lt;div&gt;- numero_telefone : str&lt;/div&gt;&lt;div&gt;- email : str&lt;/div&gt;&lt;div&gt;&lt;br&gt;&lt;/div&gt;&lt;/div&gt;" style="text;strokeColor=none;fillColor=none;align=left;verticalAlign=top;spacingLeft=4;spacingRight=4;overflow=hidden;rotatable=0;points=[[0,0.5],[1,0.5]];portConstraint=eastwest;whiteSpace=wrap;html=1;fontFamily=Helvetica;" vertex="1" parent="YEOKFHbXna3Mkj-zAs45-439">
          <mxGeometry y="26" width="630" height="174" as="geometry" />
        </mxCell>
        <mxCell id="YEOKFHbXna3Mkj-zAs45-441" value="" style="line;strokeWidth=1;fillColor=none;align=left;verticalAlign=middle;spacingTop=-1;spacingLeft=3;spacingRight=3;rotatable=0;labelPosition=right;points=[];portConstraint=eastwest;strokeColor=inherit;fontFamily=Helvetica;" vertex="1" parent="YEOKFHbXna3Mkj-zAs45-439">
          <mxGeometry y="200" width="630" height="8" as="geometry" />
        </mxCell>
        <mxCell id="YEOKFHbXna3Mkj-zAs45-442" value="+ Cliente(ID : int, DC : str, DN : str, sexo : str, nome : str, cpf : str, rg : str, pfs : str, tel : str, email : str, endereço : str)&lt;div&gt;+ ToString() : str&lt;/div&gt;&lt;div&gt;+ Todict() : dict&lt;/div&gt;&lt;div&gt;&amp;nbsp;&lt;/div&gt;" style="text;strokeColor=none;fillColor=none;align=left;verticalAlign=top;spacingLeft=4;spacingRight=4;overflow=hidden;rotatable=0;points=[[0,0.5],[1,0.5]];portConstraint=eastwest;whiteSpace=wrap;html=1;fontFamily=Helvetica;" vertex="1" parent="YEOKFHbXna3Mkj-zAs45-439">
          <mxGeometry y="208" width="630" height="52" as="geometry" />
        </mxCell>
        <mxCell id="YEOKFHbXna3Mkj-zAs45-443" value="Mediçao" style="swimlane;fontStyle=1;align=center;verticalAlign=top;childLayout=stackLayout;horizontal=1;startSize=26;horizontalStack=0;resizeParent=1;resizeParentMax=0;resizeLast=0;collapsible=1;marginBottom=0;whiteSpace=wrap;html=1;fontFamily=Helvetica;" vertex="1" parent="1">
          <mxGeometry x="-280" y="385" width="270" height="150" as="geometry" />
        </mxCell>
        <mxCell id="YEOKFHbXna3Mkj-zAs45-444" value="- id : int&lt;div&gt;- id_cliente : int&lt;/div&gt;&lt;div&gt;- data : str&lt;/div&gt;" style="text;strokeColor=none;fillColor=none;align=left;verticalAlign=top;spacingLeft=4;spacingRight=4;overflow=hidden;rotatable=0;points=[[0,0.5],[1,0.5]];portConstraint=eastwest;whiteSpace=wrap;html=1;fontFamily=Helvetica;" vertex="1" parent="YEOKFHbXna3Mkj-zAs45-443">
          <mxGeometry y="26" width="270" height="54" as="geometry" />
        </mxCell>
        <mxCell id="YEOKFHbXna3Mkj-zAs45-445" value="" style="line;strokeWidth=1;fillColor=none;align=left;verticalAlign=middle;spacingTop=-1;spacingLeft=3;spacingRight=3;rotatable=0;labelPosition=right;points=[];portConstraint=eastwest;strokeColor=inherit;fontFamily=Helvetica;" vertex="1" parent="YEOKFHbXna3Mkj-zAs45-443">
          <mxGeometry y="80" width="270" height="8" as="geometry" />
        </mxCell>
        <mxCell id="YEOKFHbXna3Mkj-zAs45-446" value="+ Mediçao(id : int, id_c: int, data : str, valor : str)&lt;div&gt;&lt;span style=&quot;background-color: transparent; color: light-dark(rgb(0, 0, 0), rgb(255, 255, 255));&quot;&gt;+ ToString() : str&lt;/span&gt;&lt;/div&gt;&lt;div&gt;+ Todict() : dict&lt;span style=&quot;background-color: transparent; color: light-dark(rgb(0, 0, 0), rgb(255, 255, 255));&quot;&gt;&lt;br&gt;&lt;/span&gt;&lt;/div&gt;" style="text;strokeColor=none;fillColor=none;align=left;verticalAlign=top;spacingLeft=4;spacingRight=4;overflow=hidden;rotatable=0;points=[[0,0.5],[1,0.5]];portConstraint=eastwest;whiteSpace=wrap;html=1;fontFamily=Helvetica;" vertex="1" parent="YEOKFHbXna3Mkj-zAs45-443">
          <mxGeometry y="88" width="270" height="62" as="geometry" />
        </mxCell>
        <mxCell id="YEOKFHbXna3Mkj-zAs45-447" value="Matricula" style="swimlane;fontStyle=1;align=center;verticalAlign=top;childLayout=stackLayout;horizontal=1;startSize=26;horizontalStack=0;resizeParent=1;resizeParentMax=0;resizeLast=0;collapsible=1;marginBottom=0;whiteSpace=wrap;html=1;fontFamily=Helvetica;" vertex="1" parent="1">
          <mxGeometry x="930" y="330" width="250" height="190" as="geometry" />
        </mxCell>
        <mxCell id="YEOKFHbXna3Mkj-zAs45-448" value="- id : int&lt;div&gt;- ID_cliente : int&lt;/div&gt;&lt;div&gt;- ID_plano : int&lt;/div&gt;&lt;div&gt;- data : str&lt;/div&gt;&lt;div&gt;- data_validade : str&lt;/div&gt;" style="text;strokeColor=none;fillColor=none;align=left;verticalAlign=top;spacingLeft=4;spacingRight=4;overflow=hidden;rotatable=0;points=[[0,0.5],[1,0.5]];portConstraint=eastwest;whiteSpace=wrap;html=1;fontFamily=Helvetica;" vertex="1" parent="YEOKFHbXna3Mkj-zAs45-447">
          <mxGeometry y="26" width="250" height="84" as="geometry" />
        </mxCell>
        <mxCell id="YEOKFHbXna3Mkj-zAs45-449" value="" style="line;strokeWidth=1;fillColor=none;align=left;verticalAlign=middle;spacingTop=-1;spacingLeft=3;spacingRight=3;rotatable=0;labelPosition=right;points=[];portConstraint=eastwest;strokeColor=inherit;fontFamily=Helvetica;" vertex="1" parent="YEOKFHbXna3Mkj-zAs45-447">
          <mxGeometry y="110" width="250" height="8" as="geometry" />
        </mxCell>
        <mxCell id="YEOKFHbXna3Mkj-zAs45-450" value="+Matricula(id : int, ID_c : int, id_p : int, valid : str, data : str&lt;span style=&quot;background-color: transparent; color: light-dark(rgb(0, 0, 0), rgb(255, 255, 255));&quot;&gt;)&lt;/span&gt;&lt;div&gt;+ ToString() : str&lt;span style=&quot;background-color: transparent; color: light-dark(rgb(0, 0, 0), rgb(255, 255, 255));&quot;&gt;&lt;br&gt;&lt;/span&gt;&lt;/div&gt;&lt;div&gt;+ Todict() : dict&lt;br&gt;&lt;/div&gt;" style="text;strokeColor=none;fillColor=none;align=left;verticalAlign=top;spacingLeft=4;spacingRight=4;overflow=hidden;rotatable=0;points=[[0,0.5],[1,0.5]];portConstraint=eastwest;whiteSpace=wrap;html=1;fontFamily=Helvetica;" vertex="1" parent="YEOKFHbXna3Mkj-zAs45-447">
          <mxGeometry y="118" width="250" height="72" as="geometry" />
        </mxCell>
        <mxCell id="YEOKFHbXna3Mkj-zAs45-451" value="pagamento" style="swimlane;fontStyle=1;align=center;verticalAlign=top;childLayout=stackLayout;horizontal=1;startSize=26;horizontalStack=0;resizeParent=1;resizeParentMax=0;resizeLast=0;collapsible=1;marginBottom=0;whiteSpace=wrap;html=1;fontFamily=Helvetica;" vertex="1" parent="1">
          <mxGeometry x="895" y="570" width="320" height="230" as="geometry" />
        </mxCell>
        <mxCell id="YEOKFHbXna3Mkj-zAs45-452" value="- id&lt;div&gt;- Id_cliente&lt;/div&gt;&lt;div&gt;- id_matricula&lt;/div&gt;&lt;div&gt;- emissao&lt;/div&gt;&lt;div&gt;- vencimento&lt;/div&gt;&lt;div&gt;- data_pagamento&lt;/div&gt;&lt;div&gt;- valor : float&lt;/div&gt;&lt;div&gt;- pago : boolean&lt;/div&gt;" style="text;strokeColor=none;fillColor=none;align=left;verticalAlign=top;spacingLeft=4;spacingRight=4;overflow=hidden;rotatable=0;points=[[0,0.5],[1,0.5]];portConstraint=eastwest;whiteSpace=wrap;html=1;fontFamily=Helvetica;" vertex="1" parent="YEOKFHbXna3Mkj-zAs45-451">
          <mxGeometry y="26" width="320" height="124" as="geometry" />
        </mxCell>
        <mxCell id="YEOKFHbXna3Mkj-zAs45-453" value="" style="line;strokeWidth=1;fillColor=none;align=left;verticalAlign=middle;spacingTop=-1;spacingLeft=3;spacingRight=3;rotatable=0;labelPosition=right;points=[];portConstraint=eastwest;strokeColor=inherit;fontFamily=Helvetica;" vertex="1" parent="YEOKFHbXna3Mkj-zAs45-451">
          <mxGeometry y="150" width="320" height="8" as="geometry" />
        </mxCell>
        <mxCell id="YEOKFHbXna3Mkj-zAs45-454" value="+ pagamento(id : int, c : int, m : int, e : str, valid : str, data_pag : str, valor : float)&lt;div&gt;+ ToString() : str&lt;br&gt;&lt;/div&gt;&lt;div&gt;+ Todict() : dict&lt;br&gt;&lt;/div&gt;" style="text;strokeColor=none;fillColor=none;align=left;verticalAlign=top;spacingLeft=4;spacingRight=4;overflow=hidden;rotatable=0;points=[[0,0.5],[1,0.5]];portConstraint=eastwest;whiteSpace=wrap;html=1;fontFamily=Helvetica;" vertex="1" parent="YEOKFHbXna3Mkj-zAs45-451">
          <mxGeometry y="158" width="320" height="72" as="geometry" />
        </mxCell>
        <mxCell id="YEOKFHbXna3Mkj-zAs45-455" value="TreinoAluno" style="swimlane;fontStyle=1;align=center;verticalAlign=top;childLayout=stackLayout;horizontal=1;startSize=26;horizontalStack=0;resizeParent=1;resizeParentMax=0;resizeLast=0;collapsible=1;marginBottom=0;whiteSpace=wrap;html=1;fontFamily=Helvetica;" vertex="1" parent="1">
          <mxGeometry x="-200" y="630" width="240" height="160" as="geometry" />
        </mxCell>
        <mxCell id="YEOKFHbXna3Mkj-zAs45-456" value="- id : int&lt;div&gt;- ID_aluno : int&lt;/div&gt;&lt;div&gt;- data : str&lt;/div&gt;&lt;div&gt;- data_final&lt;/div&gt;" style="text;strokeColor=none;fillColor=none;align=left;verticalAlign=top;spacingLeft=4;spacingRight=4;overflow=hidden;rotatable=0;points=[[0,0.5],[1,0.5]];portConstraint=eastwest;whiteSpace=wrap;html=1;fontFamily=Helvetica;" vertex="1" parent="YEOKFHbXna3Mkj-zAs45-455">
          <mxGeometry y="26" width="240" height="74" as="geometry" />
        </mxCell>
        <mxCell id="YEOKFHbXna3Mkj-zAs45-457" value="" style="line;strokeWidth=1;fillColor=none;align=left;verticalAlign=middle;spacingTop=-1;spacingLeft=3;spacingRight=3;rotatable=0;labelPosition=right;points=[];portConstraint=eastwest;strokeColor=inherit;fontFamily=Helvetica;" vertex="1" parent="YEOKFHbXna3Mkj-zAs45-455">
          <mxGeometry y="100" width="240" height="8" as="geometry" />
        </mxCell>
        <mxCell id="YEOKFHbXna3Mkj-zAs45-458" value="+ TreinoAluno(ID : int, ID_C : int, data : str)&lt;div&gt;+ ToString() : str&lt;br&gt;&lt;/div&gt;&lt;div&gt;+ Todict() : dict&lt;br&gt;&lt;/div&gt;" style="text;strokeColor=none;fillColor=none;align=left;verticalAlign=top;spacingLeft=4;spacingRight=4;overflow=hidden;rotatable=0;points=[[0,0.5],[1,0.5]];portConstraint=eastwest;whiteSpace=wrap;html=1;fontFamily=Helvetica;" vertex="1" parent="YEOKFHbXna3Mkj-zAs45-455">
          <mxGeometry y="108" width="240" height="52" as="geometry" />
        </mxCell>
        <mxCell id="YEOKFHbXna3Mkj-zAs45-459" value="&lt;div&gt;&amp;lt;&amp;lt; static &amp;gt;&amp;gt;&lt;/div&gt;Crud" style="swimlane;fontStyle=1;align=center;verticalAlign=top;childLayout=stackLayout;horizontal=1;startSize=35;horizontalStack=0;resizeParent=1;resizeParentMax=0;resizeLast=0;collapsible=1;marginBottom=0;whiteSpace=wrap;html=1;fontFamily=Helvetica;" vertex="1" parent="1">
          <mxGeometry x="390" y="750" width="160" height="179" as="geometry" />
        </mxCell>
        <mxCell id="YEOKFHbXna3Mkj-zAs45-460" value="- objetos : list" style="text;strokeColor=none;fillColor=none;align=left;verticalAlign=top;spacingLeft=4;spacingRight=4;overflow=hidden;rotatable=0;points=[[0,0.5],[1,0.5]];portConstraint=eastwest;whiteSpace=wrap;html=1;fontFamily=Helvetica;" vertex="1" parent="YEOKFHbXna3Mkj-zAs45-459">
          <mxGeometry y="35" width="160" height="26" as="geometry" />
        </mxCell>
        <mxCell id="YEOKFHbXna3Mkj-zAs45-461" value="" style="line;strokeWidth=1;fillColor=none;align=left;verticalAlign=middle;spacingTop=-1;spacingLeft=3;spacingRight=3;rotatable=0;labelPosition=right;points=[];portConstraint=eastwest;strokeColor=inherit;fontFamily=Helvetica;" vertex="1" parent="YEOKFHbXna3Mkj-zAs45-459">
          <mxGeometry y="61" width="160" height="8" as="geometry" />
        </mxCell>
        <mxCell id="YEOKFHbXna3Mkj-zAs45-462" value="+ inserir()&lt;div&gt;+ listar()&lt;/div&gt;&lt;div&gt;+ buscar_id()&lt;/div&gt;&lt;div&gt;+ atualizar()&lt;/div&gt;&lt;div&gt;+ excluir()&lt;/div&gt;&lt;div&gt;+ abrir()&lt;/div&gt;&lt;div&gt;+ salvar()&lt;/div&gt;" style="text;strokeColor=none;fillColor=none;align=left;verticalAlign=top;spacingLeft=4;spacingRight=4;overflow=hidden;rotatable=0;points=[[0,0.5],[1,0.5]];portConstraint=eastwest;whiteSpace=wrap;html=1;fontFamily=Helvetica;" vertex="1" parent="YEOKFHbXna3Mkj-zAs45-459">
          <mxGeometry y="69" width="160" height="110" as="geometry" />
        </mxCell>
        <mxCell id="YEOKFHbXna3Mkj-zAs45-463" value="&lt;div&gt;&amp;lt;&amp;lt; static &amp;gt;&amp;gt;&lt;br&gt;&lt;/div&gt;pagamentos" style="swimlane;fontStyle=0;childLayout=stackLayout;horizontal=1;startSize=35;fillColor=none;horizontalStack=0;resizeParent=1;resizeParentMax=0;resizeLast=0;collapsible=1;marginBottom=0;whiteSpace=wrap;html=1;fontFamily=Helvetica;" vertex="1" parent="1">
          <mxGeometry x="657" y="1040" width="140" height="87" as="geometry" />
        </mxCell>
        <mxCell id="YEOKFHbXna3Mkj-zAs45-464" value="+ abrir()" style="text;strokeColor=none;fillColor=none;align=left;verticalAlign=top;spacingLeft=4;spacingRight=4;overflow=hidden;rotatable=0;points=[[0,0.5],[1,0.5]];portConstraint=eastwest;whiteSpace=wrap;html=1;fontFamily=Helvetica;" vertex="1" parent="YEOKFHbXna3Mkj-zAs45-463">
          <mxGeometry y="35" width="140" height="26" as="geometry" />
        </mxCell>
        <mxCell id="YEOKFHbXna3Mkj-zAs45-465" value="+ salvar()" style="text;strokeColor=none;fillColor=none;align=left;verticalAlign=top;spacingLeft=4;spacingRight=4;overflow=hidden;rotatable=0;points=[[0,0.5],[1,0.5]];portConstraint=eastwest;whiteSpace=wrap;html=1;fontFamily=Helvetica;" vertex="1" parent="YEOKFHbXna3Mkj-zAs45-463">
          <mxGeometry y="61" width="140" height="26" as="geometry" />
        </mxCell>
        <mxCell id="YEOKFHbXna3Mkj-zAs45-466" style="edgeStyle=none;shape=connector;rounded=0;orthogonalLoop=1;jettySize=auto;html=1;exitX=0.5;exitY=0;exitDx=0;exitDy=0;strokeColor=default;align=center;verticalAlign=middle;fontFamily=Helvetica;fontSize=11;fontColor=default;labelBackgroundColor=default;endArrow=classic;endFill=0;" edge="1" parent="1" source="YEOKFHbXna3Mkj-zAs45-467" target="YEOKFHbXna3Mkj-zAs45-462">
          <mxGeometry relative="1" as="geometry" />
        </mxCell>
        <mxCell id="YEOKFHbXna3Mkj-zAs45-467" value="&lt;div&gt;&amp;lt;&amp;lt; static &amp;gt;&amp;gt;&lt;br&gt;&lt;/div&gt;valoresmediçao" style="swimlane;fontStyle=0;childLayout=stackLayout;horizontal=1;startSize=35;fillColor=none;horizontalStack=0;resizeParent=1;resizeParentMax=0;resizeLast=0;collapsible=1;marginBottom=0;whiteSpace=wrap;html=1;fontFamily=Helvetica;" vertex="1" parent="1">
          <mxGeometry x="313" y="1040" width="140" height="87" as="geometry" />
        </mxCell>
        <mxCell id="YEOKFHbXna3Mkj-zAs45-468" value="+ abrir()" style="text;strokeColor=none;fillColor=none;align=left;verticalAlign=top;spacingLeft=4;spacingRight=4;overflow=hidden;rotatable=0;points=[[0,0.5],[1,0.5]];portConstraint=eastwest;whiteSpace=wrap;html=1;fontFamily=Helvetica;" vertex="1" parent="YEOKFHbXna3Mkj-zAs45-467">
          <mxGeometry y="35" width="140" height="26" as="geometry" />
        </mxCell>
        <mxCell id="YEOKFHbXna3Mkj-zAs45-469" value="+ salvar()" style="text;strokeColor=none;fillColor=none;align=left;verticalAlign=top;spacingLeft=4;spacingRight=4;overflow=hidden;rotatable=0;points=[[0,0.5],[1,0.5]];portConstraint=eastwest;whiteSpace=wrap;html=1;fontFamily=Helvetica;" vertex="1" parent="YEOKFHbXna3Mkj-zAs45-467">
          <mxGeometry y="61" width="140" height="26" as="geometry" />
        </mxCell>
        <mxCell id="YEOKFHbXna3Mkj-zAs45-470" value="&lt;div&gt;&amp;lt;&amp;lt; static &amp;gt;&amp;gt;&lt;br&gt;&lt;/div&gt;medidas" style="swimlane;fontStyle=0;childLayout=stackLayout;horizontal=1;startSize=35;fillColor=none;horizontalStack=0;resizeParent=1;resizeParentMax=0;resizeLast=0;collapsible=1;marginBottom=0;whiteSpace=wrap;html=1;fontFamily=Helvetica;" vertex="1" parent="1">
          <mxGeometry x="120" y="1040" width="140" height="87" as="geometry" />
        </mxCell>
        <mxCell id="YEOKFHbXna3Mkj-zAs45-471" value="+ abrir()" style="text;strokeColor=none;fillColor=none;align=left;verticalAlign=top;spacingLeft=4;spacingRight=4;overflow=hidden;rotatable=0;points=[[0,0.5],[1,0.5]];portConstraint=eastwest;whiteSpace=wrap;html=1;fontFamily=Helvetica;" vertex="1" parent="YEOKFHbXna3Mkj-zAs45-470">
          <mxGeometry y="35" width="140" height="26" as="geometry" />
        </mxCell>
        <mxCell id="YEOKFHbXna3Mkj-zAs45-472" value="+ salvar()" style="text;strokeColor=none;fillColor=none;align=left;verticalAlign=top;spacingLeft=4;spacingRight=4;overflow=hidden;rotatable=0;points=[[0,0.5],[1,0.5]];portConstraint=eastwest;whiteSpace=wrap;html=1;fontFamily=Helvetica;" vertex="1" parent="YEOKFHbXna3Mkj-zAs45-470">
          <mxGeometry y="61" width="140" height="26" as="geometry" />
        </mxCell>
        <mxCell id="YEOKFHbXna3Mkj-zAs45-473" value="&lt;div&gt;&amp;lt;&amp;lt; static &amp;gt;&amp;gt;&lt;br&gt;&lt;/div&gt;Clientes" style="swimlane;fontStyle=0;childLayout=stackLayout;horizontal=1;startSize=30;fillColor=none;horizontalStack=0;resizeParent=1;resizeParentMax=0;resizeLast=0;collapsible=1;marginBottom=0;whiteSpace=wrap;html=1;fontFamily=Helvetica;" vertex="1" parent="1">
          <mxGeometry x="120" y="890" width="140" height="82" as="geometry" />
        </mxCell>
        <mxCell id="YEOKFHbXna3Mkj-zAs45-474" value="+ abrir()" style="text;strokeColor=none;fillColor=none;align=left;verticalAlign=top;spacingLeft=4;spacingRight=4;overflow=hidden;rotatable=0;points=[[0,0.5],[1,0.5]];portConstraint=eastwest;whiteSpace=wrap;html=1;fontFamily=Helvetica;" vertex="1" parent="YEOKFHbXna3Mkj-zAs45-473">
          <mxGeometry y="30" width="140" height="26" as="geometry" />
        </mxCell>
        <mxCell id="YEOKFHbXna3Mkj-zAs45-475" value="+ salvar()" style="text;strokeColor=none;fillColor=none;align=left;verticalAlign=top;spacingLeft=4;spacingRight=4;overflow=hidden;rotatable=0;points=[[0,0.5],[1,0.5]];portConstraint=eastwest;whiteSpace=wrap;html=1;fontFamily=Helvetica;" vertex="1" parent="YEOKFHbXna3Mkj-zAs45-473">
          <mxGeometry y="56" width="140" height="26" as="geometry" />
        </mxCell>
        <mxCell id="YEOKFHbXna3Mkj-zAs45-476" value="&lt;div&gt;&amp;lt;&amp;lt; static &amp;gt;&amp;gt;&lt;br&gt;&lt;/div&gt;matriculas" style="swimlane;fontStyle=0;childLayout=stackLayout;horizontal=1;startSize=33;fillColor=none;horizontalStack=0;resizeParent=1;resizeParentMax=0;resizeLast=0;collapsible=1;marginBottom=0;whiteSpace=wrap;html=1;fontFamily=Helvetica;" vertex="1" parent="1">
          <mxGeometry x="657" y="890" width="140" height="85" as="geometry" />
        </mxCell>
        <mxCell id="YEOKFHbXna3Mkj-zAs45-477" value="+ abrir()" style="text;strokeColor=none;fillColor=none;align=left;verticalAlign=top;spacingLeft=4;spacingRight=4;overflow=hidden;rotatable=0;points=[[0,0.5],[1,0.5]];portConstraint=eastwest;whiteSpace=wrap;html=1;fontFamily=Helvetica;" vertex="1" parent="YEOKFHbXna3Mkj-zAs45-476">
          <mxGeometry y="33" width="140" height="26" as="geometry" />
        </mxCell>
        <mxCell id="YEOKFHbXna3Mkj-zAs45-478" value="+ salvar()" style="text;strokeColor=none;fillColor=none;align=left;verticalAlign=top;spacingLeft=4;spacingRight=4;overflow=hidden;rotatable=0;points=[[0,0.5],[1,0.5]];portConstraint=eastwest;whiteSpace=wrap;html=1;fontFamily=Helvetica;" vertex="1" parent="YEOKFHbXna3Mkj-zAs45-476">
          <mxGeometry y="59" width="140" height="26" as="geometry" />
        </mxCell>
        <mxCell id="YEOKFHbXna3Mkj-zAs45-479" style="edgeStyle=none;shape=connector;rounded=0;orthogonalLoop=1;jettySize=auto;html=1;exitX=1;exitY=0.5;exitDx=0;exitDy=0;strokeColor=default;align=center;verticalAlign=middle;fontFamily=Helvetica;fontSize=11;fontColor=default;labelBackgroundColor=default;endArrow=classic;endFill=0;" edge="1" parent="1" source="YEOKFHbXna3Mkj-zAs45-474">
          <mxGeometry relative="1" as="geometry">
            <mxPoint x="390" y="880" as="targetPoint" />
          </mxGeometry>
        </mxCell>
        <mxCell id="YEOKFHbXna3Mkj-zAs45-480" style="edgeStyle=none;shape=connector;rounded=0;orthogonalLoop=1;jettySize=auto;html=1;exitX=1;exitY=0.5;exitDx=0;exitDy=0;entryX=-0.003;entryY=0.609;entryDx=0;entryDy=0;entryPerimeter=0;strokeColor=default;align=center;verticalAlign=middle;fontFamily=Helvetica;fontSize=11;fontColor=default;labelBackgroundColor=default;endArrow=none;endFill=0;startFill=0;" edge="1" parent="1" source="YEOKFHbXna3Mkj-zAs45-444" target="YEOKFHbXna3Mkj-zAs45-440">
          <mxGeometry relative="1" as="geometry" />
        </mxCell>
        <mxCell id="YEOKFHbXna3Mkj-zAs45-481" value="*" style="edgeLabel;html=1;align=center;verticalAlign=middle;resizable=0;points=[];fontFamily=Helvetica;fontSize=11;fontColor=default;labelBackgroundColor=default;" vertex="1" connectable="0" parent="YEOKFHbXna3Mkj-zAs45-480">
          <mxGeometry x="-0.7091" relative="1" as="geometry">
            <mxPoint as="offset" />
          </mxGeometry>
        </mxCell>
        <mxCell id="YEOKFHbXna3Mkj-zAs45-482" value="1" style="edgeLabel;html=1;align=center;verticalAlign=middle;resizable=0;points=[];fontFamily=Helvetica;fontSize=11;fontColor=default;labelBackgroundColor=default;" vertex="1" connectable="0" parent="YEOKFHbXna3Mkj-zAs45-480">
          <mxGeometry x="0.4437" y="-1" relative="1" as="geometry">
            <mxPoint x="12" y="-5" as="offset" />
          </mxGeometry>
        </mxCell>
        <mxCell id="YEOKFHbXna3Mkj-zAs45-483" style="edgeStyle=none;shape=connector;rounded=0;orthogonalLoop=1;jettySize=auto;html=1;exitX=0;exitY=0.5;exitDx=0;exitDy=0;entryX=1;entryY=0.5;entryDx=0;entryDy=0;strokeColor=default;align=center;verticalAlign=middle;fontFamily=Helvetica;fontSize=11;fontColor=default;labelBackgroundColor=default;endArrow=none;endFill=0;startFill=0;" edge="1" parent="1" source="YEOKFHbXna3Mkj-zAs45-448" target="YEOKFHbXna3Mkj-zAs45-440">
          <mxGeometry relative="1" as="geometry" />
        </mxCell>
        <mxCell id="YEOKFHbXna3Mkj-zAs45-484" value="*" style="edgeLabel;html=1;align=center;verticalAlign=middle;resizable=0;points=[];fontFamily=Helvetica;fontSize=11;fontColor=default;labelBackgroundColor=default;" vertex="1" connectable="0" parent="YEOKFHbXna3Mkj-zAs45-483">
          <mxGeometry x="-0.66" relative="1" as="geometry">
            <mxPoint y="1" as="offset" />
          </mxGeometry>
        </mxCell>
        <mxCell id="YEOKFHbXna3Mkj-zAs45-485" value="1" style="edgeLabel;html=1;align=center;verticalAlign=middle;resizable=0;points=[];fontFamily=Helvetica;fontSize=11;fontColor=default;labelBackgroundColor=default;" vertex="1" connectable="0" parent="YEOKFHbXna3Mkj-zAs45-483">
          <mxGeometry x="0.64" y="-2" relative="1" as="geometry">
            <mxPoint as="offset" />
          </mxGeometry>
        </mxCell>
        <mxCell id="YEOKFHbXna3Mkj-zAs45-486" style="edgeStyle=none;shape=connector;rounded=0;orthogonalLoop=1;jettySize=auto;html=1;exitX=0;exitY=0;exitDx=0;exitDy=0;entryX=1;entryY=1;entryDx=0;entryDy=0;entryPerimeter=0;strokeColor=default;align=center;verticalAlign=middle;fontFamily=Helvetica;fontSize=11;fontColor=default;labelBackgroundColor=default;startFill=0;endArrow=none;endFill=0;" edge="1" parent="1" source="YEOKFHbXna3Mkj-zAs45-451" target="YEOKFHbXna3Mkj-zAs45-442">
          <mxGeometry relative="1" as="geometry" />
        </mxCell>
        <mxCell id="YEOKFHbXna3Mkj-zAs45-487" value="1" style="edgeLabel;html=1;align=center;verticalAlign=middle;resizable=0;points=[];fontFamily=Helvetica;fontSize=11;fontColor=default;labelBackgroundColor=default;" vertex="1" connectable="0" parent="YEOKFHbXna3Mkj-zAs45-486">
          <mxGeometry x="-0.3535" y="2" relative="1" as="geometry">
            <mxPoint x="-47" y="-16" as="offset" />
          </mxGeometry>
        </mxCell>
        <mxCell id="YEOKFHbXna3Mkj-zAs45-488" value="*" style="edgeLabel;html=1;align=center;verticalAlign=middle;resizable=0;points=[];fontFamily=Helvetica;fontSize=11;fontColor=default;labelBackgroundColor=default;" vertex="1" connectable="0" parent="YEOKFHbXna3Mkj-zAs45-486">
          <mxGeometry x="-0.3046" y="-1" relative="1" as="geometry">
            <mxPoint x="22" y="7" as="offset" />
          </mxGeometry>
        </mxCell>
        <mxCell id="YEOKFHbXna3Mkj-zAs45-489" style="edgeStyle=none;shape=connector;rounded=0;orthogonalLoop=1;jettySize=auto;html=1;exitX=1;exitY=0;exitDx=0;exitDy=0;entryX=0.003;entryY=0.982;entryDx=0;entryDy=0;entryPerimeter=0;strokeColor=default;align=center;verticalAlign=middle;fontFamily=Helvetica;fontSize=11;fontColor=default;labelBackgroundColor=default;startFill=0;endArrow=none;endFill=0;" edge="1" parent="1" source="YEOKFHbXna3Mkj-zAs45-455" target="YEOKFHbXna3Mkj-zAs45-442">
          <mxGeometry relative="1" as="geometry" />
        </mxCell>
        <mxCell id="YEOKFHbXna3Mkj-zAs45-490" value="1" style="edgeLabel;html=1;align=center;verticalAlign=middle;resizable=0;points=[];fontFamily=Helvetica;fontSize=11;fontColor=default;labelBackgroundColor=default;" vertex="1" connectable="0" parent="YEOKFHbXna3Mkj-zAs45-489">
          <mxGeometry x="0.7109" relative="1" as="geometry">
            <mxPoint as="offset" />
          </mxGeometry>
        </mxCell>
        <mxCell id="YEOKFHbXna3Mkj-zAs45-491" value="*&amp;nbsp;" style="edgeLabel;html=1;align=center;verticalAlign=middle;resizable=0;points=[];fontFamily=Helvetica;fontSize=15;fontColor=default;labelBackgroundColor=default;" vertex="1" connectable="0" parent="YEOKFHbXna3Mkj-zAs45-489">
          <mxGeometry x="-0.6946" y="-2" relative="1" as="geometry">
            <mxPoint x="-3" as="offset" />
          </mxGeometry>
        </mxCell>
        <mxCell id="YEOKFHbXna3Mkj-zAs45-492" value="medida" style="swimlane;fontStyle=1;align=center;verticalAlign=top;childLayout=stackLayout;horizontal=1;startSize=26;horizontalStack=0;resizeParent=1;resizeParentMax=0;resizeLast=0;collapsible=1;marginBottom=0;whiteSpace=wrap;html=1;" vertex="1" parent="1">
          <mxGeometry x="-570" y="385" width="180" height="150" as="geometry" />
        </mxCell>
        <mxCell id="YEOKFHbXna3Mkj-zAs45-493" value="- id : int&lt;div&gt;- id_medição : int&lt;/div&gt;&lt;div&gt;- id_medida : int&lt;/div&gt;&lt;div&gt;- valor : float&lt;br&gt;&lt;/div&gt;" style="text;strokeColor=none;fillColor=none;align=left;verticalAlign=top;spacingLeft=4;spacingRight=4;overflow=hidden;rotatable=0;points=[[0,0.5],[1,0.5]];portConstraint=eastwest;whiteSpace=wrap;html=1;" vertex="1" parent="YEOKFHbXna3Mkj-zAs45-492">
          <mxGeometry y="26" width="180" height="64" as="geometry" />
        </mxCell>
        <mxCell id="YEOKFHbXna3Mkj-zAs45-494" value="" style="line;strokeWidth=1;fillColor=none;align=left;verticalAlign=middle;spacingTop=-1;spacingLeft=3;spacingRight=3;rotatable=0;labelPosition=right;points=[];portConstraint=eastwest;strokeColor=inherit;" vertex="1" parent="YEOKFHbXna3Mkj-zAs45-492">
          <mxGeometry y="90" width="180" height="8" as="geometry" />
        </mxCell>
        <mxCell id="YEOKFHbXna3Mkj-zAs45-495" value="+ medida(id: int, d : str, u :str)&lt;div&gt;+ ToString() : str&lt;br&gt;&lt;/div&gt;&lt;div&gt;+ Todict() : dict&lt;br&gt;&lt;/div&gt;&lt;div&gt;&lt;br&gt;&lt;/div&gt;" style="text;strokeColor=none;fillColor=none;align=left;verticalAlign=top;spacingLeft=4;spacingRight=4;overflow=hidden;rotatable=0;points=[[0,0.5],[1,0.5]];portConstraint=eastwest;whiteSpace=wrap;html=1;" vertex="1" parent="YEOKFHbXna3Mkj-zAs45-492">
          <mxGeometry y="98" width="180" height="52" as="geometry" />
        </mxCell>
        <mxCell id="YEOKFHbXna3Mkj-zAs45-496" value="endereço" style="swimlane;fontStyle=1;align=center;verticalAlign=top;childLayout=stackLayout;horizontal=1;startSize=26;horizontalStack=0;resizeParent=1;resizeParentMax=0;resizeLast=0;collapsible=1;marginBottom=0;whiteSpace=wrap;html=1;" vertex="1" parent="1">
          <mxGeometry x="-180" y="90" width="200" height="190" as="geometry" />
        </mxCell>
        <mxCell id="YEOKFHbXna3Mkj-zAs45-497" value="&lt;div&gt;- id : int&lt;/div&gt;&lt;div&gt;- id_cliente : int&lt;/div&gt;- bairro : str&lt;div&gt;- cep : str&lt;/div&gt;&lt;div&gt;- rua : str&lt;/div&gt;&lt;div&gt;- numero : int&lt;/div&gt;" style="text;strokeColor=none;fillColor=none;align=left;verticalAlign=top;spacingLeft=4;spacingRight=4;overflow=hidden;rotatable=0;points=[[0,0.5],[1,0.5]];portConstraint=eastwest;whiteSpace=wrap;html=1;" vertex="1" parent="YEOKFHbXna3Mkj-zAs45-496">
          <mxGeometry y="26" width="200" height="94" as="geometry" />
        </mxCell>
        <mxCell id="YEOKFHbXna3Mkj-zAs45-498" value="" style="line;strokeWidth=1;fillColor=none;align=left;verticalAlign=middle;spacingTop=-1;spacingLeft=3;spacingRight=3;rotatable=0;labelPosition=right;points=[];portConstraint=eastwest;strokeColor=inherit;" vertex="1" parent="YEOKFHbXna3Mkj-zAs45-496">
          <mxGeometry y="120" width="200" height="8" as="geometry" />
        </mxCell>
        <mxCell id="YEOKFHbXna3Mkj-zAs45-499" value="+ Endereço(id : int, id_c : str, b : str,&lt;div&gt;&amp;nbsp;c : str, r : str, n : int)&lt;/div&gt;&lt;div&gt;+ ToString() : str&lt;br&gt;&lt;/div&gt;&lt;div&gt;+ Todict() : dict&lt;br&gt;&lt;/div&gt;" style="text;strokeColor=none;fillColor=none;align=left;verticalAlign=top;spacingLeft=4;spacingRight=4;overflow=hidden;rotatable=0;points=[[0,0.5],[1,0.5]];portConstraint=eastwest;whiteSpace=wrap;html=1;" vertex="1" parent="YEOKFHbXna3Mkj-zAs45-496">
          <mxGeometry y="128" width="200" height="62" as="geometry" />
        </mxCell>
        <mxCell id="YEOKFHbXna3Mkj-zAs45-500" style="rounded=0;orthogonalLoop=1;jettySize=auto;html=1;exitX=1;exitY=0.5;exitDx=0;exitDy=0;entryX=-0.005;entryY=0.569;entryDx=0;entryDy=0;endArrow=none;startFill=0;entryPerimeter=0;" edge="1" parent="1" source="YEOKFHbXna3Mkj-zAs45-493" target="YEOKFHbXna3Mkj-zAs45-444">
          <mxGeometry relative="1" as="geometry" />
        </mxCell>
        <mxCell id="YEOKFHbXna3Mkj-zAs45-501" value="*" style="edgeLabel;html=1;align=center;verticalAlign=middle;resizable=0;points=[];fontSize=13;" vertex="1" connectable="0" parent="YEOKFHbXna3Mkj-zAs45-500">
          <mxGeometry x="0.6757" relative="1" as="geometry">
            <mxPoint x="-71" y="-2" as="offset" />
          </mxGeometry>
        </mxCell>
        <mxCell id="YEOKFHbXna3Mkj-zAs45-502" value="1" style="edgeLabel;html=1;align=center;verticalAlign=middle;resizable=0;points=[];" vertex="1" connectable="0" parent="YEOKFHbXna3Mkj-zAs45-500">
          <mxGeometry x="-0.5056" y="-1" relative="1" as="geometry">
            <mxPoint x="63" y="-4" as="offset" />
          </mxGeometry>
        </mxCell>
        <mxCell id="YEOKFHbXna3Mkj-zAs45-503" style="rounded=0;orthogonalLoop=1;jettySize=auto;html=1;exitX=0;exitY=0;exitDx=0;exitDy=0;entryX=0.994;entryY=1.038;entryDx=0;entryDy=0;entryPerimeter=0;endArrow=none;startFill=0;" edge="1" parent="1" source="YEOKFHbXna3Mkj-zAs45-439" target="YEOKFHbXna3Mkj-zAs45-499">
          <mxGeometry relative="1" as="geometry" />
        </mxCell>
        <mxCell id="YEOKFHbXna3Mkj-zAs45-504" value="1" style="edgeLabel;html=1;align=center;verticalAlign=middle;resizable=0;points=[];" vertex="1" connectable="0" parent="YEOKFHbXna3Mkj-zAs45-503">
          <mxGeometry x="0.6709" y="1" relative="1" as="geometry">
            <mxPoint as="offset" />
          </mxGeometry>
        </mxCell>
        <mxCell id="YEOKFHbXna3Mkj-zAs45-505" value="1" style="edgeLabel;html=1;align=center;verticalAlign=middle;resizable=0;points=[];" vertex="1" connectable="0" parent="YEOKFHbXna3Mkj-zAs45-503">
          <mxGeometry x="-0.4835" y="-1" relative="1" as="geometry">
            <mxPoint as="offset" />
          </mxGeometry>
        </mxCell>
        <mxCell id="YEOKFHbXna3Mkj-zAs45-506" value="musculo" style="swimlane;fontStyle=1;align=center;verticalAlign=top;childLayout=stackLayout;horizontal=1;startSize=26;horizontalStack=0;resizeParent=1;resizeParentMax=0;resizeLast=0;collapsible=1;marginBottom=0;whiteSpace=wrap;html=1;fontFamily=Helvetica;" vertex="1" parent="1">
          <mxGeometry x="-890" y="650" width="220" height="130" as="geometry" />
        </mxCell>
        <mxCell id="YEOKFHbXna3Mkj-zAs45-507" value="- id : int&lt;div&gt;- nome : str&lt;/div&gt;" style="text;strokeColor=none;fillColor=none;align=left;verticalAlign=top;spacingLeft=4;spacingRight=4;overflow=hidden;rotatable=0;points=[[0,0.5],[1,0.5]];portConstraint=eastwest;whiteSpace=wrap;html=1;fontFamily=Helvetica;" vertex="1" parent="YEOKFHbXna3Mkj-zAs45-506">
          <mxGeometry y="26" width="220" height="44" as="geometry" />
        </mxCell>
        <mxCell id="YEOKFHbXna3Mkj-zAs45-508" value="" style="line;strokeWidth=1;fillColor=none;align=left;verticalAlign=middle;spacingTop=-1;spacingLeft=3;spacingRight=3;rotatable=0;labelPosition=right;points=[];portConstraint=eastwest;strokeColor=inherit;fontFamily=Helvetica;" vertex="1" parent="YEOKFHbXna3Mkj-zAs45-506">
          <mxGeometry y="70" width="220" height="8" as="geometry" />
        </mxCell>
        <mxCell id="YEOKFHbXna3Mkj-zAs45-509" value="+ GrupMuscle(id : int, nome : str)&lt;div&gt;+ ToString() : str&lt;/div&gt;&lt;div&gt;+ Todict() : dict&lt;br&gt;&lt;/div&gt;" style="text;strokeColor=none;fillColor=none;align=left;verticalAlign=top;spacingLeft=4;spacingRight=4;overflow=hidden;rotatable=0;points=[[0,0.5],[1,0.5]];portConstraint=eastwest;whiteSpace=wrap;html=1;fontFamily=Helvetica;" vertex="1" parent="YEOKFHbXna3Mkj-zAs45-506">
          <mxGeometry y="78" width="220" height="52" as="geometry" />
        </mxCell>
        <mxCell id="YEOKFHbXna3Mkj-zAs45-510" value="plano" style="swimlane;fontStyle=1;align=center;verticalAlign=top;childLayout=stackLayout;horizontal=1;startSize=26;horizontalStack=0;resizeParent=1;resizeParentMax=0;resizeLast=0;collapsible=1;marginBottom=0;whiteSpace=wrap;html=1;fontFamily=Helvetica;" vertex="1" parent="1">
          <mxGeometry x="1300" y="330" width="250" height="170" as="geometry" />
        </mxCell>
        <mxCell id="YEOKFHbXna3Mkj-zAs45-511" value="- id : int&lt;div&gt;- nome : str&lt;/div&gt;&lt;div&gt;&lt;span style=&quot;background-color: transparent; color: light-dark(rgb(0, 0, 0), rgb(255, 255, 255));&quot;&gt;- valor : float&lt;/span&gt;&lt;/div&gt;&lt;div&gt;- tempo : str&lt;/div&gt;" style="text;strokeColor=none;fillColor=none;align=left;verticalAlign=top;spacingLeft=4;spacingRight=4;overflow=hidden;rotatable=0;points=[[0,0.5],[1,0.5]];portConstraint=eastwest;whiteSpace=wrap;html=1;fontFamily=Helvetica;" vertex="1" parent="YEOKFHbXna3Mkj-zAs45-510">
          <mxGeometry y="26" width="250" height="84" as="geometry" />
        </mxCell>
        <mxCell id="YEOKFHbXna3Mkj-zAs45-512" value="" style="line;strokeWidth=1;fillColor=none;align=left;verticalAlign=middle;spacingTop=-1;spacingLeft=3;spacingRight=3;rotatable=0;labelPosition=right;points=[];portConstraint=eastwest;strokeColor=inherit;fontFamily=Helvetica;" vertex="1" parent="YEOKFHbXna3Mkj-zAs45-510">
          <mxGeometry y="110" width="250" height="8" as="geometry" />
        </mxCell>
        <mxCell id="YEOKFHbXna3Mkj-zAs45-513" value="+ Plano(id : int, n : str, v : float, tempo : str&lt;span style=&quot;background-color: transparent; color: light-dark(rgb(0, 0, 0), rgb(255, 255, 255));&quot;&gt;)&lt;/span&gt;&lt;div&gt;+ ToString() : str&lt;span style=&quot;background-color: transparent; color: light-dark(rgb(0, 0, 0), rgb(255, 255, 255));&quot;&gt;&lt;br&gt;&lt;/span&gt;&lt;/div&gt;&lt;div&gt;+ Todict() : dict&lt;br&gt;&lt;/div&gt;" style="text;strokeColor=none;fillColor=none;align=left;verticalAlign=top;spacingLeft=4;spacingRight=4;overflow=hidden;rotatable=0;points=[[0,0.5],[1,0.5]];portConstraint=eastwest;whiteSpace=wrap;html=1;fontFamily=Helvetica;" vertex="1" parent="YEOKFHbXna3Mkj-zAs45-510">
          <mxGeometry y="118" width="250" height="52" as="geometry" />
        </mxCell>
        <mxCell id="YEOKFHbXna3Mkj-zAs45-514" style="rounded=0;orthogonalLoop=1;jettySize=auto;html=1;exitX=0;exitY=0.5;exitDx=0;exitDy=0;endArrow=none;startFill=0;" edge="1" parent="1" source="YEOKFHbXna3Mkj-zAs45-511" target="YEOKFHbXna3Mkj-zAs45-448">
          <mxGeometry relative="1" as="geometry" />
        </mxCell>
        <mxCell id="YEOKFHbXna3Mkj-zAs45-515" value="*" style="edgeLabel;html=1;align=center;verticalAlign=middle;resizable=0;points=[];" vertex="1" connectable="0" parent="YEOKFHbXna3Mkj-zAs45-514">
          <mxGeometry x="-0.5746" y="1" relative="1" as="geometry">
            <mxPoint x="-74" y="1" as="offset" />
          </mxGeometry>
        </mxCell>
        <mxCell id="YEOKFHbXna3Mkj-zAs45-516" value="1" style="edgeLabel;html=1;align=center;verticalAlign=middle;resizable=0;points=[];" vertex="1" connectable="0" parent="YEOKFHbXna3Mkj-zAs45-514">
          <mxGeometry x="0.6764" y="1" relative="1" as="geometry">
            <mxPoint x="81" as="offset" />
          </mxGeometry>
        </mxCell>
        <mxCell id="YEOKFHbXna3Mkj-zAs45-517" style="rounded=0;orthogonalLoop=1;jettySize=auto;html=1;exitX=0.5;exitY=0;exitDx=0;exitDy=0;entryX=0.513;entryY=0.985;entryDx=0;entryDy=0;entryPerimeter=0;endArrow=none;startFill=0;" edge="1" parent="1" source="YEOKFHbXna3Mkj-zAs45-451" target="YEOKFHbXna3Mkj-zAs45-450">
          <mxGeometry relative="1" as="geometry" />
        </mxCell>
        <mxCell id="YEOKFHbXna3Mkj-zAs45-518" value="1" style="edgeLabel;html=1;align=center;verticalAlign=middle;resizable=0;points=[];" vertex="1" connectable="0" parent="YEOKFHbXna3Mkj-zAs45-517">
          <mxGeometry x="0.6058" y="1" relative="1" as="geometry">
            <mxPoint as="offset" />
          </mxGeometry>
        </mxCell>
        <mxCell id="YEOKFHbXna3Mkj-zAs45-519" value="*" style="edgeLabel;html=1;align=center;verticalAlign=middle;resizable=0;points=[];" vertex="1" connectable="0" parent="YEOKFHbXna3Mkj-zAs45-517">
          <mxGeometry x="-0.5212" relative="1" as="geometry">
            <mxPoint as="offset" />
          </mxGeometry>
        </mxCell>
        <mxCell id="YEOKFHbXna3Mkj-zAs45-520" value="Treino" style="swimlane;fontStyle=1;align=center;verticalAlign=top;childLayout=stackLayout;horizontal=1;startSize=26;horizontalStack=0;resizeParent=1;resizeParentMax=0;resizeLast=0;collapsible=1;marginBottom=0;whiteSpace=wrap;html=1;fontFamily=Helvetica;" vertex="1" parent="1">
          <mxGeometry x="-550" y="640" width="260" height="160" as="geometry" />
        </mxCell>
        <mxCell id="YEOKFHbXna3Mkj-zAs45-521" value="- id : int&lt;div&gt;- ID_grupmuscle : int&lt;/div&gt;&lt;div&gt;- id_treino : int&lt;/div&gt;&lt;div&gt;- descrição : str&lt;/div&gt;" style="text;strokeColor=none;fillColor=none;align=left;verticalAlign=top;spacingLeft=4;spacingRight=4;overflow=hidden;rotatable=0;points=[[0,0.5],[1,0.5]];portConstraint=eastwest;whiteSpace=wrap;html=1;fontFamily=Helvetica;" vertex="1" parent="YEOKFHbXna3Mkj-zAs45-520">
          <mxGeometry y="26" width="260" height="64" as="geometry" />
        </mxCell>
        <mxCell id="YEOKFHbXna3Mkj-zAs45-522" value="" style="line;strokeWidth=1;fillColor=none;align=left;verticalAlign=middle;spacingTop=-1;spacingLeft=3;spacingRight=3;rotatable=0;labelPosition=right;points=[];portConstraint=eastwest;strokeColor=inherit;fontFamily=Helvetica;" vertex="1" parent="YEOKFHbXna3Mkj-zAs45-520">
          <mxGeometry y="90" width="260" height="8" as="geometry" />
        </mxCell>
        <mxCell id="YEOKFHbXna3Mkj-zAs45-523" value="+ Treino(ID : int, ID_C : int, id_t : int desc : str)&lt;div&gt;+ ToString() : str&lt;br&gt;&lt;/div&gt;&lt;div&gt;+ Todict() : dict&lt;br&gt;&lt;/div&gt;" style="text;strokeColor=none;fillColor=none;align=left;verticalAlign=top;spacingLeft=4;spacingRight=4;overflow=hidden;rotatable=0;points=[[0,0.5],[1,0.5]];portConstraint=eastwest;whiteSpace=wrap;html=1;fontFamily=Helvetica;" vertex="1" parent="YEOKFHbXna3Mkj-zAs45-520">
          <mxGeometry y="98" width="260" height="62" as="geometry" />
        </mxCell>
        <mxCell id="YEOKFHbXna3Mkj-zAs45-524" style="rounded=0;orthogonalLoop=1;jettySize=auto;html=1;exitX=1;exitY=0.5;exitDx=0;exitDy=0;endArrow=none;startFill=0;entryX=-0.001;entryY=0.613;entryDx=0;entryDy=0;entryPerimeter=0;" edge="1" parent="1" source="YEOKFHbXna3Mkj-zAs45-521" target="YEOKFHbXna3Mkj-zAs45-456">
          <mxGeometry relative="1" as="geometry">
            <mxPoint x="-210" y="688" as="targetPoint" />
          </mxGeometry>
        </mxCell>
        <mxCell id="YEOKFHbXna3Mkj-zAs45-525" value="1" style="edgeLabel;html=1;align=center;verticalAlign=middle;resizable=0;points=[];fontFamily=Helvetica;fontSize=11;fontColor=default;labelBackgroundColor=default;" vertex="1" connectable="0" parent="YEOKFHbXna3Mkj-zAs45-524">
          <mxGeometry x="0.5415" y="-1" relative="1" as="geometry">
            <mxPoint x="-49" y="-3" as="offset" />
          </mxGeometry>
        </mxCell>
        <mxCell id="YEOKFHbXna3Mkj-zAs45-526" value="*" style="edgeLabel;html=1;align=center;verticalAlign=middle;resizable=0;points=[];fontFamily=Helvetica;fontSize=16;fontColor=default;labelBackgroundColor=default;" vertex="1" connectable="0" parent="YEOKFHbXna3Mkj-zAs45-524">
          <mxGeometry x="-0.6335" relative="1" as="geometry">
            <mxPoint x="53" y="7" as="offset" />
          </mxGeometry>
        </mxCell>
        <mxCell id="YEOKFHbXna3Mkj-zAs45-527" style="edgeStyle=none;shape=connector;rounded=0;orthogonalLoop=1;jettySize=auto;html=1;exitX=1;exitY=0.5;exitDx=0;exitDy=0;entryX=0;entryY=0.5;entryDx=0;entryDy=0;strokeColor=default;align=center;verticalAlign=middle;fontFamily=Helvetica;fontSize=11;fontColor=default;labelBackgroundColor=default;startFill=0;endArrow=none;" edge="1" parent="1" source="YEOKFHbXna3Mkj-zAs45-507" target="YEOKFHbXna3Mkj-zAs45-521">
          <mxGeometry relative="1" as="geometry" />
        </mxCell>
        <mxCell id="YEOKFHbXna3Mkj-zAs45-528" value="*" style="edgeLabel;html=1;align=center;verticalAlign=middle;resizable=0;points=[];fontFamily=Helvetica;fontSize=11;fontColor=default;labelBackgroundColor=default;" vertex="1" connectable="0" parent="YEOKFHbXna3Mkj-zAs45-527">
          <mxGeometry x="0.6712" y="-2" relative="1" as="geometry">
            <mxPoint as="offset" />
          </mxGeometry>
        </mxCell>
        <mxCell id="YEOKFHbXna3Mkj-zAs45-529" value="1" style="edgeLabel;html=1;align=center;verticalAlign=middle;resizable=0;points=[];fontFamily=Helvetica;fontSize=11;fontColor=default;labelBackgroundColor=default;" vertex="1" connectable="0" parent="YEOKFHbXna3Mkj-zAs45-527">
          <mxGeometry x="-0.5692" y="-2" relative="1" as="geometry">
            <mxPoint y="-1" as="offset" />
          </mxGeometry>
        </mxCell>
        <mxCell id="YEOKFHbXna3Mkj-zAs45-530" value="PartCorpo" style="swimlane;fontStyle=1;align=center;verticalAlign=top;childLayout=stackLayout;horizontal=1;startSize=26;horizontalStack=0;resizeParent=1;resizeParentMax=0;resizeLast=0;collapsible=1;marginBottom=0;whiteSpace=wrap;html=1;" vertex="1" parent="1">
          <mxGeometry x="-900" y="390" width="190" height="140" as="geometry" />
        </mxCell>
        <mxCell id="YEOKFHbXna3Mkj-zAs45-531" value="- id : int&lt;div&gt;&lt;span style=&quot;background-color: transparent; color: light-dark(rgb(0, 0, 0), rgb(255, 255, 255));&quot;&gt;- nome : str&lt;/span&gt;&lt;br&gt;&lt;/div&gt;&lt;div&gt;&lt;span style=&quot;background-color: transparent; color: light-dark(rgb(0, 0, 0), rgb(255, 255, 255));&quot;&gt;- unidade : str&lt;/span&gt;&lt;/div&gt;" style="text;strokeColor=none;fillColor=none;align=left;verticalAlign=top;spacingLeft=4;spacingRight=4;overflow=hidden;rotatable=0;points=[[0,0.5],[1,0.5]];portConstraint=eastwest;whiteSpace=wrap;html=1;" vertex="1" parent="YEOKFHbXna3Mkj-zAs45-530">
          <mxGeometry y="26" width="190" height="54" as="geometry" />
        </mxCell>
        <mxCell id="YEOKFHbXna3Mkj-zAs45-532" value="" style="line;strokeWidth=1;fillColor=none;align=left;verticalAlign=middle;spacingTop=-1;spacingLeft=3;spacingRight=3;rotatable=0;labelPosition=right;points=[];portConstraint=eastwest;strokeColor=inherit;" vertex="1" parent="YEOKFHbXna3Mkj-zAs45-530">
          <mxGeometry y="80" width="190" height="8" as="geometry" />
        </mxCell>
        <mxCell id="YEOKFHbXna3Mkj-zAs45-533" value="+ PartCorpo(id: int, d : str, u :str)&lt;div&gt;+ ToString() : str&lt;br&gt;&lt;/div&gt;&lt;div&gt;+ Todict() : dict&lt;br&gt;&lt;/div&gt;&lt;div&gt;&lt;br&gt;&lt;/div&gt;" style="text;strokeColor=none;fillColor=none;align=left;verticalAlign=top;spacingLeft=4;spacingRight=4;overflow=hidden;rotatable=0;points=[[0,0.5],[1,0.5]];portConstraint=eastwest;whiteSpace=wrap;html=1;" vertex="1" parent="YEOKFHbXna3Mkj-zAs45-530">
          <mxGeometry y="88" width="190" height="52" as="geometry" />
        </mxCell>
        <mxCell id="YEOKFHbXna3Mkj-zAs45-534" style="edgeStyle=none;shape=connector;rounded=0;orthogonalLoop=1;jettySize=auto;html=1;exitX=1;exitY=0.5;exitDx=0;exitDy=0;entryX=0;entryY=0.5;entryDx=0;entryDy=0;strokeColor=default;align=center;verticalAlign=middle;fontFamily=Helvetica;fontSize=11;fontColor=default;labelBackgroundColor=default;startFill=0;endArrow=none;" edge="1" parent="1" source="YEOKFHbXna3Mkj-zAs45-531" target="YEOKFHbXna3Mkj-zAs45-493">
          <mxGeometry relative="1" as="geometry" />
        </mxCell>
        <mxCell id="YEOKFHbXna3Mkj-zAs45-535" value="1" style="edgeLabel;html=1;align=center;verticalAlign=middle;resizable=0;points=[];" vertex="1" connectable="0" parent="YEOKFHbXna3Mkj-zAs45-534">
          <mxGeometry x="0.6551" relative="1" as="geometry">
            <mxPoint x="-96" y="1" as="offset" />
          </mxGeometry>
        </mxCell>
        <mxCell id="YEOKFHbXna3Mkj-zAs45-536" value="*" style="edgeLabel;html=1;align=center;verticalAlign=middle;resizable=0;points=[];" vertex="1" connectable="0" parent="YEOKFHbXna3Mkj-zAs45-534">
          <mxGeometry x="0.6415" relative="1" as="geometry">
            <mxPoint as="offset" />
          </mxGeometry>
        </mxCell>
        <mxCell id="YEOKFHbXna3Mkj-zAs45-537" value="&lt;div&gt;&amp;lt;&amp;lt; static &amp;gt;&amp;gt;&lt;br&gt;&lt;/div&gt;endereços" style="swimlane;fontStyle=0;childLayout=stackLayout;horizontal=1;startSize=30;fillColor=none;horizontalStack=0;resizeParent=1;resizeParentMax=0;resizeLast=0;collapsible=1;marginBottom=0;whiteSpace=wrap;html=1;fontFamily=Helvetica;" vertex="1" parent="1">
          <mxGeometry x="120" y="750" width="140" height="82" as="geometry" />
        </mxCell>
        <mxCell id="YEOKFHbXna3Mkj-zAs45-538" value="+ abrir()" style="text;strokeColor=none;fillColor=none;align=left;verticalAlign=top;spacingLeft=4;spacingRight=4;overflow=hidden;rotatable=0;points=[[0,0.5],[1,0.5]];portConstraint=eastwest;whiteSpace=wrap;html=1;fontFamily=Helvetica;" vertex="1" parent="YEOKFHbXna3Mkj-zAs45-537">
          <mxGeometry y="30" width="140" height="26" as="geometry" />
        </mxCell>
        <mxCell id="YEOKFHbXna3Mkj-zAs45-539" value="+ salvar()" style="text;strokeColor=none;fillColor=none;align=left;verticalAlign=top;spacingLeft=4;spacingRight=4;overflow=hidden;rotatable=0;points=[[0,0.5],[1,0.5]];portConstraint=eastwest;whiteSpace=wrap;html=1;fontFamily=Helvetica;" vertex="1" parent="YEOKFHbXna3Mkj-zAs45-537">
          <mxGeometry y="56" width="140" height="26" as="geometry" />
        </mxCell>
        <mxCell id="YEOKFHbXna3Mkj-zAs45-540" value="&lt;div&gt;&amp;lt;&amp;lt; static &amp;gt;&amp;gt;&lt;br&gt;&lt;/div&gt;Treinos" style="swimlane;fontStyle=0;childLayout=stackLayout;horizontal=1;startSize=30;fillColor=none;horizontalStack=0;resizeParent=1;resizeParentMax=0;resizeLast=0;collapsible=1;marginBottom=0;whiteSpace=wrap;html=1;fontFamily=Helvetica;" vertex="1" parent="1">
          <mxGeometry x="120" y="610" width="140" height="82" as="geometry" />
        </mxCell>
        <mxCell id="YEOKFHbXna3Mkj-zAs45-541" value="+ abrir()" style="text;strokeColor=none;fillColor=none;align=left;verticalAlign=top;spacingLeft=4;spacingRight=4;overflow=hidden;rotatable=0;points=[[0,0.5],[1,0.5]];portConstraint=eastwest;whiteSpace=wrap;html=1;fontFamily=Helvetica;" vertex="1" parent="YEOKFHbXna3Mkj-zAs45-540">
          <mxGeometry y="30" width="140" height="26" as="geometry" />
        </mxCell>
        <mxCell id="YEOKFHbXna3Mkj-zAs45-542" value="+ salvar()" style="text;strokeColor=none;fillColor=none;align=left;verticalAlign=top;spacingLeft=4;spacingRight=4;overflow=hidden;rotatable=0;points=[[0,0.5],[1,0.5]];portConstraint=eastwest;whiteSpace=wrap;html=1;fontFamily=Helvetica;" vertex="1" parent="YEOKFHbXna3Mkj-zAs45-540">
          <mxGeometry y="56" width="140" height="26" as="geometry" />
        </mxCell>
        <mxCell id="YEOKFHbXna3Mkj-zAs45-543" style="edgeStyle=none;shape=connector;rounded=0;orthogonalLoop=1;jettySize=auto;html=1;exitX=0.488;exitY=1.063;exitDx=0;exitDy=0;strokeColor=default;align=center;verticalAlign=middle;fontFamily=Helvetica;fontSize=11;fontColor=default;labelBackgroundColor=default;endArrow=classic;endFill=0;exitPerimeter=0;" edge="1" parent="1" source="YEOKFHbXna3Mkj-zAs45-546" target="YEOKFHbXna3Mkj-zAs45-459">
          <mxGeometry relative="1" as="geometry" />
        </mxCell>
        <mxCell id="YEOKFHbXna3Mkj-zAs45-544" value="&lt;div&gt;&amp;lt;&amp;lt; static &amp;gt;&amp;gt;&lt;br&gt;&lt;/div&gt;musculos" style="swimlane;fontStyle=0;childLayout=stackLayout;horizontal=1;startSize=30;fillColor=none;horizontalStack=0;resizeParent=1;resizeParentMax=0;resizeLast=0;collapsible=1;marginBottom=0;whiteSpace=wrap;html=1;fontFamily=Helvetica;" vertex="1" parent="1">
          <mxGeometry x="400" y="610" width="140" height="82" as="geometry" />
        </mxCell>
        <mxCell id="YEOKFHbXna3Mkj-zAs45-545" value="+ abrir()" style="text;strokeColor=none;fillColor=none;align=left;verticalAlign=top;spacingLeft=4;spacingRight=4;overflow=hidden;rotatable=0;points=[[0,0.5],[1,0.5]];portConstraint=eastwest;whiteSpace=wrap;html=1;fontFamily=Helvetica;" vertex="1" parent="YEOKFHbXna3Mkj-zAs45-544">
          <mxGeometry y="30" width="140" height="26" as="geometry" />
        </mxCell>
        <mxCell id="YEOKFHbXna3Mkj-zAs45-546" value="+ salvar()" style="text;strokeColor=none;fillColor=none;align=left;verticalAlign=top;spacingLeft=4;spacingRight=4;overflow=hidden;rotatable=0;points=[[0,0.5],[1,0.5]];portConstraint=eastwest;whiteSpace=wrap;html=1;fontFamily=Helvetica;" vertex="1" parent="YEOKFHbXna3Mkj-zAs45-544">
          <mxGeometry y="56" width="140" height="26" as="geometry" />
        </mxCell>
        <mxCell id="YEOKFHbXna3Mkj-zAs45-547" value="&lt;div&gt;&amp;lt;&amp;lt; static &amp;gt;&amp;gt;&lt;br&gt;&lt;/div&gt;planos" style="swimlane;fontStyle=0;childLayout=stackLayout;horizontal=1;startSize=30;fillColor=none;horizontalStack=0;resizeParent=1;resizeParentMax=0;resizeLast=0;collapsible=1;marginBottom=0;whiteSpace=wrap;html=1;fontFamily=Helvetica;" vertex="1" parent="1">
          <mxGeometry x="657" y="760" width="140" height="82" as="geometry" />
        </mxCell>
        <mxCell id="YEOKFHbXna3Mkj-zAs45-548" value="+ abrir()" style="text;strokeColor=none;fillColor=none;align=left;verticalAlign=top;spacingLeft=4;spacingRight=4;overflow=hidden;rotatable=0;points=[[0,0.5],[1,0.5]];portConstraint=eastwest;whiteSpace=wrap;html=1;fontFamily=Helvetica;" vertex="1" parent="YEOKFHbXna3Mkj-zAs45-547">
          <mxGeometry y="30" width="140" height="26" as="geometry" />
        </mxCell>
        <mxCell id="YEOKFHbXna3Mkj-zAs45-549" value="+ salvar()" style="text;strokeColor=none;fillColor=none;align=left;verticalAlign=top;spacingLeft=4;spacingRight=4;overflow=hidden;rotatable=0;points=[[0,0.5],[1,0.5]];portConstraint=eastwest;whiteSpace=wrap;html=1;fontFamily=Helvetica;" vertex="1" parent="YEOKFHbXna3Mkj-zAs45-547">
          <mxGeometry y="56" width="140" height="26" as="geometry" />
        </mxCell>
        <mxCell id="YEOKFHbXna3Mkj-zAs45-550" value="&lt;div&gt;&amp;lt;&amp;lt; static &amp;gt;&amp;gt;&lt;br&gt;&lt;/div&gt;mediçoes" style="swimlane;fontStyle=0;childLayout=stackLayout;horizontal=1;startSize=35;fillColor=none;horizontalStack=0;resizeParent=1;resizeParentMax=0;resizeLast=0;collapsible=1;marginBottom=0;whiteSpace=wrap;html=1;fontFamily=Helvetica;" vertex="1" parent="1">
          <mxGeometry x="490" y="1040" width="140" height="87" as="geometry" />
        </mxCell>
        <mxCell id="YEOKFHbXna3Mkj-zAs45-551" value="+ abrir()" style="text;strokeColor=none;fillColor=none;align=left;verticalAlign=top;spacingLeft=4;spacingRight=4;overflow=hidden;rotatable=0;points=[[0,0.5],[1,0.5]];portConstraint=eastwest;whiteSpace=wrap;html=1;fontFamily=Helvetica;" vertex="1" parent="YEOKFHbXna3Mkj-zAs45-550">
          <mxGeometry y="35" width="140" height="26" as="geometry" />
        </mxCell>
        <mxCell id="YEOKFHbXna3Mkj-zAs45-552" value="+ salvar()" style="text;strokeColor=none;fillColor=none;align=left;verticalAlign=top;spacingLeft=4;spacingRight=4;overflow=hidden;rotatable=0;points=[[0,0.5],[1,0.5]];portConstraint=eastwest;whiteSpace=wrap;html=1;fontFamily=Helvetica;" vertex="1" parent="YEOKFHbXna3Mkj-zAs45-550">
          <mxGeometry y="61" width="140" height="26" as="geometry" />
        </mxCell>
        <mxCell id="YEOKFHbXna3Mkj-zAs45-553" value="&lt;div&gt;&amp;lt;&amp;lt; static &amp;gt;&amp;gt;&lt;br&gt;&lt;/div&gt;descriçaotreinos" style="swimlane;fontStyle=0;childLayout=stackLayout;horizontal=1;startSize=30;fillColor=none;horizontalStack=0;resizeParent=1;resizeParentMax=0;resizeLast=0;collapsible=1;marginBottom=0;whiteSpace=wrap;html=1;fontFamily=Helvetica;" vertex="1" parent="1">
          <mxGeometry x="657" y="610" width="140" height="82" as="geometry" />
        </mxCell>
        <mxCell id="YEOKFHbXna3Mkj-zAs45-554" value="+ abrir()" style="text;strokeColor=none;fillColor=none;align=left;verticalAlign=top;spacingLeft=4;spacingRight=4;overflow=hidden;rotatable=0;points=[[0,0.5],[1,0.5]];portConstraint=eastwest;whiteSpace=wrap;html=1;fontFamily=Helvetica;" vertex="1" parent="YEOKFHbXna3Mkj-zAs45-553">
          <mxGeometry y="30" width="140" height="26" as="geometry" />
        </mxCell>
        <mxCell id="YEOKFHbXna3Mkj-zAs45-555" value="+ salvar()" style="text;strokeColor=none;fillColor=none;align=left;verticalAlign=top;spacingLeft=4;spacingRight=4;overflow=hidden;rotatable=0;points=[[0,0.5],[1,0.5]];portConstraint=eastwest;whiteSpace=wrap;html=1;fontFamily=Helvetica;" vertex="1" parent="YEOKFHbXna3Mkj-zAs45-553">
          <mxGeometry y="56" width="140" height="26" as="geometry" />
        </mxCell>
        <mxCell id="YEOKFHbXna3Mkj-zAs45-556" style="edgeStyle=none;shape=connector;rounded=0;orthogonalLoop=1;jettySize=auto;html=1;exitX=1;exitY=0;exitDx=0;exitDy=0;entryX=0.006;entryY=1.009;entryDx=0;entryDy=0;entryPerimeter=0;strokeColor=default;align=center;verticalAlign=middle;fontFamily=Helvetica;fontSize=11;fontColor=default;labelBackgroundColor=default;endArrow=classic;endFill=0;" edge="1" parent="1" source="YEOKFHbXna3Mkj-zAs45-470" target="YEOKFHbXna3Mkj-zAs45-462">
          <mxGeometry relative="1" as="geometry" />
        </mxCell>
        <mxCell id="YEOKFHbXna3Mkj-zAs45-557" style="edgeStyle=none;shape=connector;rounded=0;orthogonalLoop=1;jettySize=auto;html=1;exitX=0.5;exitY=0;exitDx=0;exitDy=0;entryX=0.614;entryY=1.026;entryDx=0;entryDy=0;entryPerimeter=0;strokeColor=default;align=center;verticalAlign=middle;fontFamily=Helvetica;fontSize=11;fontColor=default;labelBackgroundColor=default;endArrow=classic;endFill=0;" edge="1" parent="1" source="YEOKFHbXna3Mkj-zAs45-550" target="YEOKFHbXna3Mkj-zAs45-462">
          <mxGeometry relative="1" as="geometry" />
        </mxCell>
        <mxCell id="YEOKFHbXna3Mkj-zAs45-558" style="edgeStyle=none;shape=connector;rounded=0;orthogonalLoop=1;jettySize=auto;html=1;exitX=0;exitY=0;exitDx=0;exitDy=0;entryX=1.018;entryY=1.001;entryDx=0;entryDy=0;entryPerimeter=0;strokeColor=default;align=center;verticalAlign=middle;fontFamily=Helvetica;fontSize=11;fontColor=default;labelBackgroundColor=default;endArrow=classic;endFill=0;" edge="1" parent="1" source="YEOKFHbXna3Mkj-zAs45-463" target="YEOKFHbXna3Mkj-zAs45-462">
          <mxGeometry relative="1" as="geometry" />
        </mxCell>
        <mxCell id="YEOKFHbXna3Mkj-zAs45-559" style="edgeStyle=none;shape=connector;rounded=0;orthogonalLoop=1;jettySize=auto;html=1;exitX=0;exitY=0.5;exitDx=0;exitDy=0;entryX=1;entryY=0.5;entryDx=0;entryDy=0;strokeColor=default;align=center;verticalAlign=middle;fontFamily=Helvetica;fontSize=11;fontColor=default;labelBackgroundColor=default;endArrow=classic;endFill=0;" edge="1" parent="1" source="YEOKFHbXna3Mkj-zAs45-477" target="YEOKFHbXna3Mkj-zAs45-462">
          <mxGeometry relative="1" as="geometry" />
        </mxCell>
        <mxCell id="YEOKFHbXna3Mkj-zAs45-560" style="edgeStyle=none;shape=connector;rounded=0;orthogonalLoop=1;jettySize=auto;html=1;exitX=0;exitY=0.5;exitDx=0;exitDy=0;entryX=1.018;entryY=0.257;entryDx=0;entryDy=0;entryPerimeter=0;strokeColor=default;align=center;verticalAlign=middle;fontFamily=Helvetica;fontSize=11;fontColor=default;labelBackgroundColor=default;endArrow=classic;endFill=0;" edge="1" parent="1" source="YEOKFHbXna3Mkj-zAs45-548" target="YEOKFHbXna3Mkj-zAs45-462">
          <mxGeometry relative="1" as="geometry" />
        </mxCell>
        <mxCell id="YEOKFHbXna3Mkj-zAs45-561" style="edgeStyle=none;shape=connector;rounded=0;orthogonalLoop=1;jettySize=auto;html=1;exitX=1;exitY=0.5;exitDx=0;exitDy=0;entryX=-0.022;entryY=0.232;entryDx=0;entryDy=0;entryPerimeter=0;strokeColor=default;align=center;verticalAlign=middle;fontFamily=Helvetica;fontSize=11;fontColor=default;labelBackgroundColor=default;endArrow=classic;endFill=0;" edge="1" parent="1" source="YEOKFHbXna3Mkj-zAs45-538" target="YEOKFHbXna3Mkj-zAs45-462">
          <mxGeometry relative="1" as="geometry" />
        </mxCell>
        <mxCell id="YEOKFHbXna3Mkj-zAs45-562" style="edgeStyle=none;shape=connector;rounded=0;orthogonalLoop=1;jettySize=auto;html=1;exitX=1.02;exitY=0.958;exitDx=0;exitDy=0;entryX=0;entryY=0;entryDx=0;entryDy=0;strokeColor=default;align=center;verticalAlign=middle;fontFamily=Helvetica;fontSize=11;fontColor=default;labelBackgroundColor=default;endArrow=classic;endFill=0;exitPerimeter=0;" edge="1" parent="1" source="YEOKFHbXna3Mkj-zAs45-542" target="YEOKFHbXna3Mkj-zAs45-459">
          <mxGeometry relative="1" as="geometry" />
        </mxCell>
        <mxCell id="YEOKFHbXna3Mkj-zAs45-563" style="edgeStyle=none;shape=connector;rounded=0;orthogonalLoop=1;jettySize=auto;html=1;exitX=-0.023;exitY=0.993;exitDx=0;exitDy=0;entryX=1;entryY=0;entryDx=0;entryDy=0;strokeColor=default;align=center;verticalAlign=middle;fontFamily=Helvetica;fontSize=11;fontColor=default;labelBackgroundColor=default;endArrow=classic;endFill=0;exitPerimeter=0;" edge="1" parent="1" source="YEOKFHbXna3Mkj-zAs45-555" target="YEOKFHbXna3Mkj-zAs45-459">
          <mxGeometry relative="1" as="geometry" />
        </mxCell>
        <mxCell id="YEOKFHbXna3Mkj-zAs45-564" value="Models : Python e Java" style="text;align=center;fontStyle=1;verticalAlign=middle;spacingLeft=3;spacingRight=3;strokeColor=none;rotatable=0;points=[[0,0.5],[1,0.5]];portConstraint=eastwest;html=1;fontSize=25;" vertex="1" parent="1">
          <mxGeometry x="268" y="80" width="230" height="70" as="geometry" />
        </mxCell>
        <mxCell id="YEOKFHbXna3Mkj-zAs45-565" value="View" style="swimlane;fontStyle=0;childLayout=stackLayout;horizontal=1;startSize=26;fillColor=none;horizontalStack=0;resizeParent=1;resizeParentMax=0;resizeLast=0;collapsible=1;marginBottom=0;whiteSpace=wrap;html=1;" vertex="1" parent="1">
          <mxGeometry x="-2190" y="20" width="320" height="200" as="geometry" />
        </mxCell>
        <mxCell id="YEOKFHbXna3Mkj-zAs45-566" value="&lt;div&gt;+ validar_login() : void&lt;/div&gt;&lt;div&gt;+ &lt;span class=&quot;hljs-built_in&quot;&gt;renovar_matricula&lt;/span&gt;(&lt;span style=&quot;background-color: transparent; color: light-dark(rgb(0, 0, 0), rgb(255, 255, 255));&quot;&gt;idCli: int&lt;/span&gt;&lt;span style=&quot;background-color: transparent; color: light-dark(rgb(0, 0, 0), rgb(255, 255, 255));&quot;&gt;) : void&lt;/span&gt;&lt;/div&gt;&lt;div&gt;+ matricular_aluno(&lt;span style=&quot;background-color: transparent; color: light-dark(rgb(0, 0, 0), rgb(255, 255, 255));&quot;&gt;idCli: int, plano: int&lt;/span&gt;&lt;span style=&quot;background-color: transparent; color: light-dark(rgb(0, 0, 0), rgb(255, 255, 255));&quot;&gt;) : void&lt;/span&gt;&lt;/div&gt;&lt;div&gt;&lt;span style=&quot;background-color: transparent; color: light-dark(rgb(0, 0, 0), rgb(255, 255, 255));&quot;&gt;+ realizar_pagamento(&lt;/span&gt;&lt;span style=&quot;background-color: transparent; color: light-dark(rgb(0, 0, 0), rgb(255, 255, 255));&quot;&gt;idCli: int&lt;/span&gt;&lt;span style=&quot;background-color: transparent; color: light-dark(rgb(0, 0, 0), rgb(255, 255, 255));&quot;&gt;) : void&lt;/span&gt;&lt;/div&gt;&lt;div&gt;+ &lt;span class=&quot;hljs-built_in&quot;&gt;cancelar_matricula&lt;/span&gt;(&lt;span style=&quot;background-color: transparent; color: light-dark(rgb(0, 0, 0), rgb(255, 255, 255));&quot;&gt;idCli: int&lt;/span&gt;&lt;span style=&quot;background-color: transparent; color: light-dark(rgb(0, 0, 0), rgb(255, 255, 255));&quot;&gt;) : void&lt;/span&gt;&lt;/div&gt;&lt;div&gt;+ &lt;span class=&quot;hljs-built_in&quot;&gt;calcular_rendimento_mes&lt;/span&gt;() : double&lt;br&gt;&lt;/div&gt;&lt;div&gt;+ deventes_do_mes() : list&amp;lt;aluno&amp;gt;&lt;/div&gt;&lt;div&gt;+ pagamentos_do_mes() : int&lt;/div&gt;&lt;div&gt;+ renovar_treino(&lt;span style=&quot;background-color: transparent; color: light-dark(rgb(0, 0, 0), rgb(255, 255, 255));&quot;&gt;idCli: int&lt;/span&gt;&lt;span style=&quot;background-color: transparent; color: light-dark(rgb(0, 0, 0), rgb(255, 255, 255));&quot;&gt;) : void&lt;/span&gt;&lt;/div&gt;&lt;div&gt;+ renovar_mediçao(&lt;span style=&quot;background-color: transparent; color: light-dark(rgb(0, 0, 0), rgb(255, 255, 255));&quot;&gt;idCli: int&lt;/span&gt;&lt;span style=&quot;background-color: transparent; color: light-dark(rgb(0, 0, 0), rgb(255, 255, 255));&quot;&gt;) : void&lt;/span&gt;&lt;/div&gt;&lt;div&gt;&lt;span style=&quot;background-color: transparent; color: light-dark(rgb(0, 0, 0), rgb(255, 255, 255));&quot;&gt;+ gerar_pagamentos() : void&lt;/span&gt;&lt;/div&gt;" style="text;strokeColor=none;fillColor=none;align=left;verticalAlign=top;spacingLeft=4;spacingRight=4;overflow=hidden;rotatable=0;points=[[0,0.5],[1,0.5]];portConstraint=eastwest;whiteSpace=wrap;html=1;" vertex="1" parent="YEOKFHbXna3Mkj-zAs45-565">
          <mxGeometry y="26" width="320" height="174" as="geometry" />
        </mxCell>
        <mxCell id="YEOKFHbXna3Mkj-zAs45-567" value="viewAlunos" style="swimlane;fontStyle=0;childLayout=stackLayout;horizontal=1;startSize=26;fillColor=none;horizontalStack=0;resizeParent=1;resizeParentMax=0;resizeLast=0;collapsible=1;marginBottom=0;whiteSpace=wrap;html=1;" vertex="1" parent="1">
          <mxGeometry x="-2640" y="-290" width="320" height="180" as="geometry" />
        </mxCell>
        <mxCell id="YEOKFHbXna3Mkj-zAs45-568" value="+ inserir_aluno(nm: str, email: str, senha: str, tel: str,&amp;nbsp; dtNasc: str, sexo: str, rg: str, prof: str, bairro: str, cep: str, rua: str, num: str) :void&lt;div&gt;&lt;div&gt;+&amp;nbsp;&lt;span class=&quot;hljs-built_in&quot;&gt;excluir_aluno&lt;/span&gt;(id: int) : void&lt;br&gt;&lt;/div&gt;&lt;div&gt;&lt;span style=&quot;background-color: transparent; color: light-dark(rgb(0, 0, 0), rgb(255, 255, 255));&quot;&gt;+&amp;nbsp;&lt;/span&gt;&lt;span style=&quot;background-color: transparent; color: light-dark(rgb(0, 0, 0), rgb(255, 255, 255));&quot; class=&quot;hljs-built_in&quot;&gt;atualizar_aluno&lt;/span&gt;&lt;span style=&quot;background-color: transparent; color: light-dark(rgb(0, 0, 0), rgb(255, 255, 255));&quot;&gt;(id: int, nm: str, email: str, senha: str, tel: str, dtCad: str, dtNasc: str, sexo: str, rg: str, prof: str, bairro: str, cep: str, rua: str, num: str) : void&lt;/span&gt;&lt;br&gt;&lt;/div&gt;&lt;div&gt;&lt;span style=&quot;background-color: transparent; color: light-dark(rgb(0, 0, 0), rgb(255, 255, 255));&quot; class=&quot;hljs-built_in&quot;&gt;+ listar_aluno&lt;/span&gt;&lt;span style=&quot;background-color: transparent; color: light-dark(rgb(0, 0, 0), rgb(255, 255, 255));&quot;&gt;() :&lt;/span&gt;&lt;span style=&quot;background-color: transparent; color: light-dark(rgb(0, 0, 0), rgb(255, 255, 255));&quot;&gt;&amp;nbsp;&lt;/span&gt;&lt;span style=&quot;background-color: transparent; color: light-dark(rgb(0, 0, 0), rgb(255, 255, 255));&quot;&gt;list&amp;lt;Aluno&amp;gt;&lt;/span&gt;&lt;br&gt;&lt;/div&gt;&lt;div&gt;&lt;span style=&quot;background-color: transparent; color: light-dark(rgb(0, 0, 0), rgb(255, 255, 255));&quot;&gt;+&amp;nbsp;&lt;/span&gt;&lt;span style=&quot;background-color: transparent; color: light-dark(rgb(0, 0, 0), rgb(255, 255, 255));&quot; class=&quot;hljs-built_in&quot;&gt;buscar_aluno&lt;/span&gt;&lt;span style=&quot;background-color: transparent; color: light-dark(rgb(0, 0, 0), rgb(255, 255, 255));&quot;&gt;(id: int) : obj&lt;/span&gt;&lt;br&gt;&lt;/div&gt;&lt;div&gt;&lt;span style=&quot;background-color: transparent; color: light-dark(rgb(0, 0, 0), rgb(255, 255, 255));&quot;&gt;+ buscar_endereço_aluno(id_a: int) : obj&lt;/span&gt;&lt;br&gt;&lt;/div&gt;&lt;/div&gt;" style="text;strokeColor=none;fillColor=none;align=left;verticalAlign=top;spacingLeft=4;spacingRight=4;overflow=hidden;rotatable=0;points=[[0,0.5],[1,0.5]];portConstraint=eastwest;whiteSpace=wrap;html=1;" vertex="1" parent="YEOKFHbXna3Mkj-zAs45-567">
          <mxGeometry y="26" width="320" height="154" as="geometry" />
        </mxCell>
        <mxCell id="YEOKFHbXna3Mkj-zAs45-569" value="viewTreinoAluno" style="swimlane;fontStyle=0;childLayout=stackLayout;horizontal=1;startSize=26;fillColor=none;horizontalStack=0;resizeParent=1;resizeParentMax=0;resizeLast=0;collapsible=1;marginBottom=0;whiteSpace=wrap;html=1;" vertex="1" parent="1">
          <mxGeometry x="-1740" y="-290" width="320" height="180" as="geometry" />
        </mxCell>
        <mxCell id="YEOKFHbXna3Mkj-zAs45-570" value="&lt;div&gt;+ inserir_treinoaluno(idAluno: int, atv: boolean) : void&lt;br&gt;&lt;/div&gt;&lt;div&gt;+&amp;nbsp;&lt;span class=&quot;hljs-built_in&quot;&gt;excluir_treinoaluno&lt;/span&gt;(id: int) : void&lt;br&gt;&lt;/div&gt;&lt;div&gt;+&amp;nbsp;&lt;span class=&quot;hljs-built_in&quot;&gt;listar_treinoaluno&lt;/span&gt;() : list&amp;lt;treinoaluno&amp;gt;&lt;br&gt;&lt;/div&gt;&lt;div&gt;+&amp;nbsp;&lt;span class=&quot;hljs-built_in&quot;&gt;buscar_treinoaluno&lt;/span&gt;(id: int) : obj&lt;br&gt;&lt;/div&gt;&lt;div&gt;+&amp;nbsp;&lt;span class=&quot;hljs-built_in&quot;&gt;atualizar_treinoaluno&lt;/span&gt;(id: int, idAluno: int, dt: str, atv: boolean) : void&lt;br&gt;&lt;/div&gt;" style="text;strokeColor=none;fillColor=none;align=left;verticalAlign=top;spacingLeft=4;spacingRight=4;overflow=hidden;rotatable=0;points=[[0,0.5],[1,0.5]];portConstraint=eastwest;whiteSpace=wrap;html=1;" vertex="1" parent="YEOKFHbXna3Mkj-zAs45-569">
          <mxGeometry y="26" width="320" height="154" as="geometry" />
        </mxCell>
        <mxCell id="YEOKFHbXna3Mkj-zAs45-571" value="viewtreino" style="swimlane;fontStyle=0;childLayout=stackLayout;horizontal=1;startSize=26;fillColor=none;horizontalStack=0;resizeParent=1;resizeParentMax=0;resizeLast=0;collapsible=1;marginBottom=0;whiteSpace=wrap;html=1;" vertex="1" parent="1">
          <mxGeometry x="-2190" y="-290" width="320" height="180" as="geometry" />
        </mxCell>
        <mxCell id="YEOKFHbXna3Mkj-zAs45-572" value="&lt;div&gt;+ inserir_treino(idMsc: int, idTr: int, desc: str) : void&lt;br&gt;&lt;/div&gt;&lt;div&gt;+&amp;nbsp;&lt;span class=&quot;hljs-built_in&quot;&gt;excluir_treino&lt;/span&gt;(id: int) : void&lt;br&gt;&lt;/div&gt;&lt;div&gt;+&amp;nbsp;&lt;span class=&quot;hljs-built_in&quot;&gt;listar_treino&lt;/span&gt;() : list&amp;lt;Treino&amp;gt;&lt;br&gt;&lt;/div&gt;&lt;div&gt;+&amp;nbsp;&lt;span class=&quot;hljs-built_in&quot;&gt;atualizar_treino&lt;/span&gt;(id: int, idMsc: int, idTr: int, desc: str) : void&lt;br&gt;&lt;/div&gt;&lt;div&gt;+ buscar_treino(id: int) : obj&lt;/div&gt;&lt;div&gt;+&amp;nbsp;&lt;span class=&quot;hljs-built_in&quot;&gt;listar_treinos_passados_aluno&lt;/span&gt;(id: int) : list&amp;lt;treino&amp;gt;&lt;br&gt;&lt;/div&gt;" style="text;strokeColor=none;fillColor=none;align=left;verticalAlign=top;spacingLeft=4;spacingRight=4;overflow=hidden;rotatable=0;points=[[0,0.5],[1,0.5]];portConstraint=eastwest;whiteSpace=wrap;html=1;" vertex="1" parent="YEOKFHbXna3Mkj-zAs45-571">
          <mxGeometry y="26" width="320" height="154" as="geometry" />
        </mxCell>
        <mxCell id="YEOKFHbXna3Mkj-zAs45-573" value="viewmusculo" style="swimlane;fontStyle=0;childLayout=stackLayout;horizontal=1;startSize=26;fillColor=none;horizontalStack=0;resizeParent=1;resizeParentMax=0;resizeLast=0;collapsible=1;marginBottom=0;whiteSpace=wrap;html=1;" vertex="1" parent="1">
          <mxGeometry x="-1740" y="350" width="320" height="160" as="geometry" />
        </mxCell>
        <mxCell id="YEOKFHbXna3Mkj-zAs45-574" value="+ inserir_musculo(nm: str) : void&lt;div&gt;+&amp;nbsp;&lt;span class=&quot;hljs-built_in&quot;&gt;excluir_musculo&lt;/span&gt;(id: int) : void&lt;br&gt;&lt;/div&gt;&lt;div&gt;+&amp;nbsp;&lt;span class=&quot;hljs-built_in&quot;&gt;listar_musculo&lt;/span&gt;() : list&amp;lt;musculo&amp;gt;&lt;br&gt;&lt;/div&gt;&lt;div&gt;+&amp;nbsp;&lt;span class=&quot;hljs-built_in&quot;&gt;atualizar_musculo&lt;/span&gt;(id: int, nm: str) : void&lt;br&gt;&lt;/div&gt;&lt;div&gt;+ buscar_musculo(id: int) : obj&lt;/div&gt;" style="text;strokeColor=none;fillColor=none;align=left;verticalAlign=top;spacingLeft=4;spacingRight=4;overflow=hidden;rotatable=0;points=[[0,0.5],[1,0.5]];portConstraint=eastwest;whiteSpace=wrap;html=1;" vertex="1" parent="YEOKFHbXna3Mkj-zAs45-573">
          <mxGeometry y="26" width="320" height="134" as="geometry" />
        </mxCell>
        <mxCell id="YEOKFHbXna3Mkj-zAs45-575" value="viewmedição" style="swimlane;fontStyle=0;childLayout=stackLayout;horizontal=1;startSize=26;fillColor=none;horizontalStack=0;resizeParent=1;resizeParentMax=0;resizeLast=0;collapsible=1;marginBottom=0;whiteSpace=wrap;html=1;" vertex="1" parent="1">
          <mxGeometry x="-2190" y="340" width="320" height="170" as="geometry" />
        </mxCell>
        <mxCell id="YEOKFHbXna3Mkj-zAs45-576" value="&lt;div&gt;+ inserir_medicão(idCli: int) : void&lt;/div&gt;&lt;div&gt;+ excluir_medicão(&lt;span style=&quot;background-color: transparent; color: light-dark(rgb(0, 0, 0), rgb(255, 255, 255));&quot;&gt;id: int&lt;/span&gt;&lt;span style=&quot;background-color: transparent; color: light-dark(rgb(0, 0, 0), rgb(255, 255, 255));&quot;&gt;) : void&lt;/span&gt;&lt;/div&gt;&lt;div&gt;+ listar_medicão() list&amp;lt;medicao&amp;gt;&lt;/div&gt;&lt;div&gt;+ atualizar_medicão(id: int, idCli: int, dt: str) : void&lt;/div&gt;&lt;div&gt;+ buscar_medicão(&lt;span style=&quot;background-color: transparent; color: light-dark(rgb(0, 0, 0), rgb(255, 255, 255));&quot;&gt;id: int&lt;/span&gt;&lt;span style=&quot;background-color: transparent; color: light-dark(rgb(0, 0, 0), rgb(255, 255, 255));&quot;&gt;) : obj&lt;/span&gt;&lt;/div&gt;&lt;div&gt;&lt;br&gt;&lt;/div&gt;" style="text;strokeColor=none;fillColor=none;align=left;verticalAlign=top;spacingLeft=4;spacingRight=4;overflow=hidden;rotatable=0;points=[[0,0.5],[1,0.5]];portConstraint=eastwest;whiteSpace=wrap;html=1;" vertex="1" parent="YEOKFHbXna3Mkj-zAs45-575">
          <mxGeometry y="26" width="320" height="144" as="geometry" />
        </mxCell>
        <mxCell id="YEOKFHbXna3Mkj-zAs45-577" value="viewmedida" style="swimlane;fontStyle=0;childLayout=stackLayout;horizontal=1;startSize=26;fillColor=none;horizontalStack=0;resizeParent=1;resizeParentMax=0;resizeLast=0;collapsible=1;marginBottom=0;whiteSpace=wrap;html=1;" vertex="1" parent="1">
          <mxGeometry x="-2640" y="340" width="320" height="170" as="geometry" />
        </mxCell>
        <mxCell id="YEOKFHbXna3Mkj-zAs45-578" value="&lt;div&gt;+ inserir_medida(idMed: int, idParte: int, val: double) : void&lt;/div&gt;&lt;div&gt;+ excluir_medida(id: int) : void&lt;/div&gt;&lt;div&gt;+ listar_medida() list&amp;lt; medida&amp;gt;&lt;/div&gt;&lt;div&gt;+ atualizar_medida(id: int, idMed: int, idParte: int, val: double) : void&lt;/div&gt;&lt;div&gt;+ buscar_medida(id: int) : obj&lt;/div&gt;" style="text;strokeColor=none;fillColor=none;align=left;verticalAlign=top;spacingLeft=4;spacingRight=4;overflow=hidden;rotatable=0;points=[[0,0.5],[1,0.5]];portConstraint=eastwest;whiteSpace=wrap;html=1;" vertex="1" parent="YEOKFHbXna3Mkj-zAs45-577">
          <mxGeometry y="26" width="320" height="144" as="geometry" />
        </mxCell>
        <mxCell id="YEOKFHbXna3Mkj-zAs45-579" value="viewpartcorpo" style="swimlane;fontStyle=0;childLayout=stackLayout;horizontal=1;startSize=26;fillColor=none;horizontalStack=0;resizeParent=1;resizeParentMax=0;resizeLast=0;collapsible=1;marginBottom=0;whiteSpace=wrap;html=1;" vertex="1" parent="1">
          <mxGeometry x="-1740" y="-70" width="320" height="180" as="geometry" />
        </mxCell>
        <mxCell id="YEOKFHbXna3Mkj-zAs45-580" value="&lt;div&gt;+ inserir_partcorpo(nm: str, un: str) : void&lt;/div&gt;&lt;div&gt;+ excluir_partcorpo(id: int) : void&lt;/div&gt;&lt;div&gt;+ listar_partcorpo() : list&amp;lt;partcorpo&amp;gt;&lt;/div&gt;&lt;div&gt;+ atualizar_partcorpo(id: int, nm: str, un: str) : void&lt;/div&gt;&lt;div&gt;+ buscar_partcorpo(id: int) : obj&lt;/div&gt;" style="text;strokeColor=none;fillColor=none;align=left;verticalAlign=top;spacingLeft=4;spacingRight=4;overflow=hidden;rotatable=0;points=[[0,0.5],[1,0.5]];portConstraint=eastwest;whiteSpace=wrap;html=1;" vertex="1" parent="YEOKFHbXna3Mkj-zAs45-579">
          <mxGeometry y="26" width="320" height="154" as="geometry" />
        </mxCell>
        <mxCell id="YEOKFHbXna3Mkj-zAs45-581" value="viewplano" style="swimlane;fontStyle=0;childLayout=stackLayout;horizontal=1;startSize=26;fillColor=none;horizontalStack=0;resizeParent=1;resizeParentMax=0;resizeLast=0;collapsible=1;marginBottom=0;whiteSpace=wrap;html=1;" vertex="1" parent="1">
          <mxGeometry x="-2640" y="-70" width="320" height="170" as="geometry" />
        </mxCell>
        <mxCell id="YEOKFHbXna3Mkj-zAs45-582" value="&lt;div&gt;+ inserir_plano(nm: str, val: double, tmp: str) : void&lt;/div&gt;&lt;div&gt;+ excluir_plano(id: int) : void&lt;/div&gt;&lt;div&gt;+ atualizar_plano(id: int, nm: str, val: double, tmp: str) : void&lt;/div&gt;&lt;div&gt;+ listar_plano() : list&amp;lt;plano&amp;gt;&lt;/div&gt;&lt;div&gt;+ buscar_plano(id: int) : obj&lt;/div&gt;" style="text;strokeColor=none;fillColor=none;align=left;verticalAlign=top;spacingLeft=4;spacingRight=4;overflow=hidden;rotatable=0;points=[[0,0.5],[1,0.5]];portConstraint=eastwest;whiteSpace=wrap;html=1;" vertex="1" parent="YEOKFHbXna3Mkj-zAs45-581">
          <mxGeometry y="26" width="320" height="144" as="geometry" />
        </mxCell>
        <mxCell id="YEOKFHbXna3Mkj-zAs45-583" value="viewMatricula" style="swimlane;fontStyle=0;childLayout=stackLayout;horizontal=1;startSize=26;fillColor=none;horizontalStack=0;resizeParent=1;resizeParentMax=0;resizeLast=0;collapsible=1;marginBottom=0;whiteSpace=wrap;html=1;" vertex="1" parent="1">
          <mxGeometry x="-1740" y="135" width="320" height="180" as="geometry" />
        </mxCell>
        <mxCell id="YEOKFHbXna3Mkj-zAs45-584" value="&lt;div&gt;+ inserir_matricula(idCli: int, plano: int) : void&lt;/div&gt;&lt;div&gt;+ excluir_matricula(id: int) : void&lt;/div&gt;&lt;div&gt;+ atualizar_matricula(id: int, idCli: int, plano: int, dt: str, val: str&lt;span style=&quot;background-color: transparent; color: light-dark(rgb(0, 0, 0), rgb(255, 255, 255));&quot;&gt;, atv: bool&lt;/span&gt;&lt;span style=&quot;background-color: transparent; color: light-dark(rgb(0, 0, 0), rgb(255, 255, 255));&quot;&gt;) : void&lt;/span&gt;&lt;/div&gt;&lt;div&gt;+ listar_matricula() : list&amp;lt;matricula&amp;gt;&lt;/div&gt;&lt;div&gt;+ buscar_matricula(id: int) : obj&lt;br&gt;&lt;/div&gt;" style="text;strokeColor=none;fillColor=none;align=left;verticalAlign=top;spacingLeft=4;spacingRight=4;overflow=hidden;rotatable=0;points=[[0,0.5],[1,0.5]];portConstraint=eastwest;whiteSpace=wrap;html=1;" vertex="1" parent="YEOKFHbXna3Mkj-zAs45-583">
          <mxGeometry y="26" width="320" height="154" as="geometry" />
        </mxCell>
        <mxCell id="YEOKFHbXna3Mkj-zAs45-585" value="viewpagamento" style="swimlane;fontStyle=0;childLayout=stackLayout;horizontal=1;startSize=26;fillColor=none;horizontalStack=0;resizeParent=1;resizeParentMax=0;resizeLast=0;collapsible=1;marginBottom=0;whiteSpace=wrap;html=1;" vertex="1" parent="1">
          <mxGeometry x="-2640" y="135" width="320" height="160" as="geometry" />
        </mxCell>
        <mxCell id="YEOKFHbXna3Mkj-zAs45-586" value="&lt;div&gt;+ inserir_pagamento(idMat: int, idCli: int, intervalo : int) : void&lt;/div&gt;&lt;div&gt;+ excluir_pagamento(id: int) : void&lt;/div&gt;&lt;div&gt;+ atualizar_pagamento(id: int, idMat: int, idCli: int, ems: str, dtPg: str, val: double, pago: boolean) : void&lt;/div&gt;&lt;div&gt;+ listar_pagamento() : list&amp;lt;pagamento&amp;gt;&lt;/div&gt;&lt;div&gt;+ buscar_pagamento(id: int) : obj&lt;/div&gt;" style="text;strokeColor=none;fillColor=none;align=left;verticalAlign=top;spacingLeft=4;spacingRight=4;overflow=hidden;rotatable=0;points=[[0,0.5],[1,0.5]];portConstraint=eastwest;whiteSpace=wrap;html=1;" vertex="1" parent="YEOKFHbXna3Mkj-zAs45-585">
          <mxGeometry y="26" width="320" height="134" as="geometry" />
        </mxCell>
        <mxCell id="YEOKFHbXna3Mkj-zAs45-587" value="" style="endArrow=open;html=1;rounded=0;exitX=0.5;exitY=0;exitDx=0;exitDy=0;endFill=0;dashed=1;" edge="1" parent="1" source="YEOKFHbXna3Mkj-zAs45-565" target="YEOKFHbXna3Mkj-zAs45-572">
          <mxGeometry width="50" height="50" relative="1" as="geometry">
            <mxPoint x="-2239" y="-108" as="sourcePoint" />
            <mxPoint x="-2240" y="20" as="targetPoint" />
          </mxGeometry>
        </mxCell>
        <mxCell id="YEOKFHbXna3Mkj-zAs45-588" value="" style="endArrow=open;html=1;rounded=0;exitX=0.5;exitY=0;exitDx=0;exitDy=0;endFill=0;dashed=1;entryX=-0.006;entryY=0.99;entryDx=0;entryDy=0;entryPerimeter=0;" edge="1" parent="1" target="YEOKFHbXna3Mkj-zAs45-570">
          <mxGeometry width="50" height="50" relative="1" as="geometry">
            <mxPoint x="-1870" y="20" as="sourcePoint" />
            <mxPoint x="-1870" y="-110" as="targetPoint" />
          </mxGeometry>
        </mxCell>
        <mxCell id="YEOKFHbXna3Mkj-zAs45-589" value="" style="endArrow=open;html=1;rounded=0;exitX=0.5;exitY=0;exitDx=0;exitDy=0;endFill=0;dashed=1;entryX=1.003;entryY=1.013;entryDx=0;entryDy=0;entryPerimeter=0;" edge="1" parent="1" target="YEOKFHbXna3Mkj-zAs45-568">
          <mxGeometry width="50" height="50" relative="1" as="geometry">
            <mxPoint x="-2190" y="22" as="sourcePoint" />
            <mxPoint x="-2062" y="-110" as="targetPoint" />
          </mxGeometry>
        </mxCell>
        <mxCell id="YEOKFHbXna3Mkj-zAs45-590" value="" style="endArrow=open;html=1;rounded=0;exitX=0;exitY=0.5;exitDx=0;exitDy=0;endFill=0;dashed=1;entryX=1;entryY=0.5;entryDx=0;entryDy=0;" edge="1" parent="1" source="YEOKFHbXna3Mkj-zAs45-566" target="YEOKFHbXna3Mkj-zAs45-582">
          <mxGeometry width="50" height="50" relative="1" as="geometry">
            <mxPoint x="-2201" y="100" as="sourcePoint" />
            <mxPoint x="-2330" y="-30" as="targetPoint" />
          </mxGeometry>
        </mxCell>
        <mxCell id="YEOKFHbXna3Mkj-zAs45-591" value="" style="endArrow=open;html=1;rounded=0;exitX=0;exitY=0.5;exitDx=0;exitDy=0;endFill=0;dashed=1;entryX=1;entryY=0.5;entryDx=0;entryDy=0;" edge="1" parent="1" source="YEOKFHbXna3Mkj-zAs45-566" target="YEOKFHbXna3Mkj-zAs45-586">
          <mxGeometry width="50" height="50" relative="1" as="geometry">
            <mxPoint x="-2180" y="133" as="sourcePoint" />
            <mxPoint x="-2310" y="38" as="targetPoint" />
          </mxGeometry>
        </mxCell>
        <mxCell id="YEOKFHbXna3Mkj-zAs45-592" style="edgeStyle=none;shape=connector;rounded=0;orthogonalLoop=1;jettySize=auto;html=1;exitX=1;exitY=0.5;exitDx=0;exitDy=0;entryX=0;entryY=0.5;entryDx=0;entryDy=0;dashed=1;strokeColor=default;align=center;verticalAlign=middle;fontFamily=Helvetica;fontSize=11;fontColor=default;labelBackgroundColor=default;endArrow=open;endFill=0;" edge="1" parent="1" source="YEOKFHbXna3Mkj-zAs45-566" target="YEOKFHbXna3Mkj-zAs45-580">
          <mxGeometry relative="1" as="geometry" />
        </mxCell>
        <mxCell id="YEOKFHbXna3Mkj-zAs45-593" style="edgeStyle=none;shape=connector;rounded=0;orthogonalLoop=1;jettySize=auto;html=1;exitX=1;exitY=0.5;exitDx=0;exitDy=0;entryX=0;entryY=0.5;entryDx=0;entryDy=0;dashed=1;strokeColor=default;align=center;verticalAlign=middle;fontFamily=Helvetica;fontSize=11;fontColor=default;labelBackgroundColor=default;endArrow=open;endFill=0;" edge="1" parent="1" source="YEOKFHbXna3Mkj-zAs45-566" target="YEOKFHbXna3Mkj-zAs45-584">
          <mxGeometry relative="1" as="geometry" />
        </mxCell>
        <mxCell id="YEOKFHbXna3Mkj-zAs45-594" style="edgeStyle=none;shape=connector;rounded=0;orthogonalLoop=1;jettySize=auto;html=1;exitX=1;exitY=0.5;exitDx=0;exitDy=0;entryX=0;entryY=0;entryDx=0;entryDy=0;dashed=1;strokeColor=default;align=center;verticalAlign=middle;fontFamily=Helvetica;fontSize=11;fontColor=default;labelBackgroundColor=default;endArrow=open;endFill=0;" edge="1" parent="1" target="YEOKFHbXna3Mkj-zAs45-573">
          <mxGeometry relative="1" as="geometry">
            <mxPoint x="-1870" y="200" as="sourcePoint" />
            <mxPoint x="-1740" y="315" as="targetPoint" />
          </mxGeometry>
        </mxCell>
        <mxCell id="YEOKFHbXna3Mkj-zAs45-595" style="edgeStyle=none;shape=connector;rounded=0;orthogonalLoop=1;jettySize=auto;html=1;exitX=0.497;exitY=1.016;exitDx=0;exitDy=0;entryX=0.5;entryY=0;entryDx=0;entryDy=0;dashed=1;strokeColor=default;align=center;verticalAlign=middle;fontFamily=Helvetica;fontSize=11;fontColor=default;labelBackgroundColor=default;endArrow=open;endFill=0;exitPerimeter=0;" edge="1" parent="1" source="YEOKFHbXna3Mkj-zAs45-566" target="YEOKFHbXna3Mkj-zAs45-575">
          <mxGeometry relative="1" as="geometry">
            <mxPoint x="-2030" y="200" as="sourcePoint" />
            <mxPoint x="-1900" y="350" as="targetPoint" />
          </mxGeometry>
        </mxCell>
        <mxCell id="YEOKFHbXna3Mkj-zAs45-596" style="edgeStyle=none;shape=connector;rounded=0;orthogonalLoop=1;jettySize=auto;html=1;exitX=1;exitY=0.5;exitDx=0;exitDy=0;entryX=1;entryY=0;entryDx=0;entryDy=0;dashed=1;strokeColor=default;align=center;verticalAlign=middle;fontFamily=Helvetica;fontSize=11;fontColor=default;labelBackgroundColor=default;endArrow=open;endFill=0;" edge="1" parent="1" target="YEOKFHbXna3Mkj-zAs45-577">
          <mxGeometry relative="1" as="geometry">
            <mxPoint x="-2190" y="200" as="sourcePoint" />
            <mxPoint x="-2060" y="350" as="targetPoint" />
          </mxGeometry>
        </mxCell>
        <mxCell id="YEOKFHbXna3Mkj-zAs45-597" value="View Admin : Python" style="text;align=center;fontStyle=1;verticalAlign=middle;spacingLeft=3;spacingRight=3;strokeColor=none;rotatable=0;points=[[0,0.5],[1,0.5]];portConstraint=eastwest;html=1;fontSize=25;" vertex="1" parent="1">
          <mxGeometry x="-2135" y="-380" width="230" height="70" as="geometry" />
        </mxCell>
        <mxCell id="YEOKFHbXna3Mkj-zAs45-598" value="" style="shape=folder;fontStyle=1;spacingTop=10;tabWidth=200;tabHeight=21;tabPosition=left;html=1;whiteSpace=wrap;fillColor=#FFFFFF;strokeColor=light-dark(#FF9999,#D7817E);strokeWidth=2;shadow=1;" vertex="1" parent="1">
          <mxGeometry x="-1760" y="910" width="470" height="360" as="geometry" />
        </mxCell>
        <mxCell id="YEOKFHbXna3Mkj-zAs45-599" value="viewcliente" style="swimlane;fontStyle=0;childLayout=stackLayout;horizontal=1;startSize=26;fillColor=none;horizontalStack=0;resizeParent=1;resizeParentMax=0;resizeLast=0;collapsible=1;marginBottom=0;whiteSpace=wrap;html=1;" vertex="1" parent="1">
          <mxGeometry x="-1685" y="990" width="320" height="250" as="geometry" />
        </mxCell>
        <mxCell id="YEOKFHbXna3Mkj-zAs45-600" value="+ validar_login(cpf : str, senha : str) : Dict&lt;div&gt;&lt;div&gt;+ listar_pagamentos(&lt;span style=&quot;background-color: transparent; color: light-dark(rgb(0, 0, 0), rgb(255, 255, 255));&quot;&gt;idCli: int&lt;/span&gt;&lt;span style=&quot;background-color: transparent; color: light-dark(rgb(0, 0, 0), rgb(255, 255, 255));&quot;&gt;) : list&amp;lt;Pagamentos&amp;gt;&lt;/span&gt;&lt;/div&gt;&lt;div&gt;&lt;div&gt;+ pagar_mensalidade(PG : obj, data : str&amp;nbsp;&lt;span style=&quot;background-color: transparent; color: light-dark(rgb(0, 0, 0), rgb(255, 255, 255));&quot;&gt;) : void&lt;/span&gt;&lt;/div&gt;&lt;div&gt;+ listar_treinoaluno(&lt;span style=&quot;background-color: transparent; color: light-dark(rgb(0, 0, 0), rgb(255, 255, 255));&quot;&gt;idTA: int&lt;/span&gt;&lt;span style=&quot;background-color: transparent; color: light-dark(rgb(0, 0, 0), rgb(255, 255, 255));&quot;&gt;) : list&amp;lt;TreinoAluno&amp;gt;&lt;/span&gt;&lt;/div&gt;&lt;div&gt;+ listar_matricula(&lt;span style=&quot;background-color: transparent; color: light-dark(rgb(0, 0, 0), rgb(255, 255, 255));&quot;&gt;idCli: int&lt;/span&gt;&lt;span style=&quot;background-color: transparent; color: light-dark(rgb(0, 0, 0), rgb(255, 255, 255));&quot;&gt;) : list&amp;lt;Matricula&amp;gt;&lt;/span&gt;&lt;/div&gt;&lt;/div&gt;&lt;/div&gt;&lt;div&gt;+ listar_mediçoes(&lt;span style=&quot;background-color: transparent; color: light-dark(rgb(0, 0, 0), rgb(255, 255, 255));&quot;&gt;idCli: int&lt;/span&gt;&lt;span style=&quot;background-color: transparent; color: light-dark(rgb(0, 0, 0), rgb(255, 255, 255));&quot;&gt;) : list&amp;lt;Mediçoes&amp;gt;&lt;/span&gt;&lt;/div&gt;&lt;div&gt;&lt;span style=&quot;background-color: transparent; color: light-dark(rgb(0, 0, 0), rgb(255, 255, 255));&quot;&gt;+ atualizar_aluno(idCli : int) : void&lt;/span&gt;&lt;/div&gt;&lt;div&gt;&lt;span style=&quot;background-color: transparent; color: light-dark(rgb(0, 0, 0), rgb(255, 255, 255));&quot;&gt;+ medididas_da_medição(idmed: int ) : list&amp;lt;Medidas&amp;gt;&lt;/span&gt;&lt;/div&gt;&lt;div&gt;&lt;span style=&quot;background-color: transparent; color: light-dark(rgb(0, 0, 0), rgb(255, 255, 255));&quot;&gt;+ listar_treinos(idCli, idTreinoAluno) : list&amp;lt;Treino&amp;gt;&lt;/span&gt;&lt;/div&gt;&lt;div&gt;&lt;span style=&quot;background-color: transparent; color: light-dark(rgb(0, 0, 0), rgb(255, 255, 255));&quot;&gt;+ listar_PartCorpo() : list&amp;lt;partcorpo&amp;gt;&lt;/span&gt;&lt;/div&gt;&lt;div&gt;- dataParaLocalDate(data : String) : LocalDate&lt;/div&gt;&lt;div&gt;+ buscar_matricula(idcli : int) : obj&lt;/div&gt;&lt;div&gt;+ atualizar_pagamento(id : int, idMat : int) : void&lt;/div&gt;&lt;div&gt;+ status_pagamento( pagamento : obj ) : str&lt;/div&gt;&lt;div&gt;+ listar_musculo() : list&amp;lt;musculo&amp;gt;&lt;/div&gt;" style="text;strokeColor=none;fillColor=none;align=left;verticalAlign=top;spacingLeft=4;spacingRight=4;overflow=hidden;rotatable=0;points=[[0,0.5],[1,0.5]];portConstraint=eastwest;whiteSpace=wrap;html=1;" vertex="1" parent="YEOKFHbXna3Mkj-zAs45-599">
          <mxGeometry y="26" width="320" height="224" as="geometry" />
        </mxCell>
        <mxCell id="YEOKFHbXna3Mkj-zAs45-601" value="View User : Java" style="text;align=center;fontStyle=1;verticalAlign=middle;spacingLeft=3;spacingRight=3;strokeColor=none;rotatable=0;points=[[0,0.5],[1,0.5]];portConstraint=eastwest;html=1;fontSize=25;" vertex="1" parent="1">
          <mxGeometry x="-1640" y="930" width="230" height="70" as="geometry" />
        </mxCell>
        <mxCell id="YEOKFHbXna3Mkj-zAs45-602" style="rounded=0;orthogonalLoop=1;jettySize=auto;html=1;exitX=0;exitY=0;exitDx=0;exitDy=297.5;exitPerimeter=0;entryX=0;entryY=0;entryDx=1400;entryDy=517;entryPerimeter=0;endArrow=none;startFill=0;startArrow=open;endFill=0;dashed=1;" edge="1" parent="1" source="YEOKFHbXna3Mkj-zAs45-438" target="YEOKFHbXna3Mkj-zAs45-437">
          <mxGeometry relative="1" as="geometry" />
        </mxCell>
        <mxCell id="YEOKFHbXna3Mkj-zAs45-603" value="" style="shape=folder;fontStyle=1;spacingTop=10;tabWidth=290;tabHeight=26;tabPosition=left;html=1;whiteSpace=wrap;fontFamily=Helvetica;fontSize=11;fontColor=default;labelBackgroundColor=default;strokeColor=#FF9999;strokeWidth=2;shadow=1;" vertex="1" parent="1">
          <mxGeometry x="-2820" y="820" width="800" height="550" as="geometry" />
        </mxCell>
        <mxCell id="YEOKFHbXna3Mkj-zAs45-604" style="edgeStyle=none;shape=connector;rounded=0;orthogonalLoop=1;jettySize=auto;html=1;exitX=0;exitY=0;exitDx=0;exitDy=852.5;exitPerimeter=0;entryX=0;entryY=0;entryDx=470;entryDy=174.455;entryPerimeter=0;strokeColor=default;align=center;verticalAlign=middle;fontFamily=Helvetica;fontSize=11;fontColor=default;labelBackgroundColor=default;startFill=0;endArrow=none;startArrow=open;endFill=0;dashed=1;" edge="1" parent="1" source="YEOKFHbXna3Mkj-zAs45-438" target="YEOKFHbXna3Mkj-zAs45-598">
          <mxGeometry relative="1" as="geometry" />
        </mxCell>
        <mxCell id="YEOKFHbXna3Mkj-zAs45-605" value="&lt;div&gt;&amp;lt;&amp;lt; Static &amp;gt;&amp;gt;&lt;/div&gt;IndexUI" style="swimlane;fontStyle=0;childLayout=stackLayout;horizontal=1;startSize=40;fillColor=none;horizontalStack=0;resizeParent=1;resizeParentMax=0;resizeLast=0;collapsible=1;marginBottom=0;whiteSpace=wrap;html=1;" vertex="1" parent="1">
          <mxGeometry x="-2485" y="1062" width="140" height="190" as="geometry" />
        </mxCell>
        <mxCell id="YEOKFHbXna3Mkj-zAs45-606" value="- id_aluno : int&lt;div&gt;- nome_aluno : int&lt;/div&gt;" style="rounded=0;whiteSpace=wrap;html=1;align=left;" vertex="1" parent="YEOKFHbXna3Mkj-zAs45-605">
          <mxGeometry y="40" width="140" height="40" as="geometry" />
        </mxCell>
        <mxCell id="YEOKFHbXna3Mkj-zAs45-607" value="+ main() : void&lt;div&gt;+ login() : void&lt;/div&gt;&lt;div&gt;+ menuAluno() : int&lt;/div&gt;&lt;div&gt;+ menuVisitante() : int&lt;/div&gt;&lt;div&gt;+ logout() : void&lt;/div&gt;" style="text;strokeColor=none;fillColor=none;align=left;verticalAlign=top;spacingLeft=4;spacingRight=4;overflow=hidden;rotatable=0;points=[[0,0.5],[1,0.5]];portConstraint=eastwest;whiteSpace=wrap;html=1;" vertex="1" parent="YEOKFHbXna3Mkj-zAs45-605">
          <mxGeometry y="80" width="140" height="110" as="geometry" />
        </mxCell>
        <mxCell id="YEOKFHbXna3Mkj-zAs45-608" value="&lt;div&gt;&amp;lt;&amp;lt; Static &amp;gt;&amp;gt;&lt;/div&gt;&lt;div&gt;MatriculaUI&lt;/div&gt;" style="swimlane;fontStyle=0;childLayout=stackLayout;horizontal=1;startSize=40;fillColor=none;horizontalStack=0;resizeParent=1;resizeParentMax=0;resizeLast=0;collapsible=1;marginBottom=0;whiteSpace=wrap;html=1;" vertex="1" parent="1">
          <mxGeometry x="-2760" y="942" width="240" height="80" as="geometry" />
        </mxCell>
        <mxCell id="YEOKFHbXna3Mkj-zAs45-609" value="+ main(id_aluno : int): int&lt;div&gt;&lt;div&gt;+ pagarMensalide(pagamentos : obj) : Void&lt;/div&gt;&lt;div&gt;&lt;br&gt;&lt;div&gt;&lt;br&gt;&lt;/div&gt;&lt;div&gt;&lt;br&gt;&lt;/div&gt;&lt;/div&gt;&lt;/div&gt;" style="text;strokeColor=none;fillColor=none;align=left;verticalAlign=top;spacingLeft=4;spacingRight=4;overflow=hidden;rotatable=0;points=[[0,0.5],[1,0.5]];portConstraint=eastwest;whiteSpace=wrap;html=1;" vertex="1" parent="YEOKFHbXna3Mkj-zAs45-608">
          <mxGeometry y="40" width="240" height="40" as="geometry" />
        </mxCell>
        <mxCell id="YEOKFHbXna3Mkj-zAs45-610" value="&lt;div&gt;&amp;lt;&amp;lt; Static &amp;gt;&amp;gt;&lt;/div&gt;&lt;div&gt;atualizarUI&lt;/div&gt;" style="swimlane;fontStyle=0;childLayout=stackLayout;horizontal=1;startSize=40;fillColor=none;horizontalStack=0;resizeParent=1;resizeParentMax=0;resizeLast=0;collapsible=1;marginBottom=0;whiteSpace=wrap;html=1;" vertex="1" parent="1">
          <mxGeometry x="-2300" y="942" width="160" height="80" as="geometry" />
        </mxCell>
        <mxCell id="YEOKFHbXna3Mkj-zAs45-611" value="+ main(idA : int) : str&lt;div&gt;&lt;br&gt;&lt;/div&gt;&lt;div&gt;&lt;br&gt;&lt;/div&gt;&lt;div&gt;&lt;br&gt;&lt;div&gt;&lt;br&gt;&lt;/div&gt;&lt;div&gt;&lt;br&gt;&lt;/div&gt;&lt;/div&gt;" style="text;strokeColor=none;fillColor=none;align=left;verticalAlign=top;spacingLeft=4;spacingRight=4;overflow=hidden;rotatable=0;points=[[0,0.5],[1,0.5]];portConstraint=eastwest;whiteSpace=wrap;html=1;" vertex="1" parent="YEOKFHbXna3Mkj-zAs45-610">
          <mxGeometry y="40" width="160" height="40" as="geometry" />
        </mxCell>
        <mxCell id="YEOKFHbXna3Mkj-zAs45-612" value="&lt;div&gt;&amp;lt;&amp;lt; Static &amp;gt;&amp;gt;&lt;/div&gt;&lt;div&gt;mediçoesUI&lt;/div&gt;" style="swimlane;fontStyle=0;childLayout=stackLayout;horizontal=1;startSize=40;fillColor=none;horizontalStack=0;resizeParent=1;resizeParentMax=0;resizeLast=0;collapsible=1;marginBottom=0;whiteSpace=wrap;html=1;" vertex="1" parent="1">
          <mxGeometry x="-2770" y="1262" width="250" height="80" as="geometry" />
        </mxCell>
        <mxCell id="YEOKFHbXna3Mkj-zAs45-613" value="+ main(idA : int): int&lt;div&gt;+ detalhar_mediçoes(M : obj, idA:int) : void&lt;/div&gt;&lt;div&gt;&lt;br&gt;&lt;/div&gt;&lt;div&gt;&lt;br&gt;&lt;div&gt;&lt;br&gt;&lt;/div&gt;&lt;div&gt;&lt;br&gt;&lt;/div&gt;&lt;/div&gt;" style="text;strokeColor=none;fillColor=none;align=left;verticalAlign=top;spacingLeft=4;spacingRight=4;overflow=hidden;rotatable=0;points=[[0,0.5],[1,0.5]];portConstraint=eastwest;whiteSpace=wrap;html=1;" vertex="1" parent="YEOKFHbXna3Mkj-zAs45-612">
          <mxGeometry y="40" width="250" height="40" as="geometry" />
        </mxCell>
        <mxCell id="YEOKFHbXna3Mkj-zAs45-614" value="&lt;div&gt;&amp;lt;&amp;lt; Static &amp;gt;&amp;gt;&lt;/div&gt;&lt;div&gt;TreinoUI&lt;/div&gt;" style="swimlane;fontStyle=0;childLayout=stackLayout;horizontal=1;startSize=40;fillColor=none;horizontalStack=0;resizeParent=1;resizeParentMax=0;resizeLast=0;collapsible=1;marginBottom=0;whiteSpace=wrap;html=1;" vertex="1" parent="1">
          <mxGeometry x="-2310" y="1262" width="240" height="90" as="geometry" />
        </mxCell>
        <mxCell id="YEOKFHbXna3Mkj-zAs45-615" value="+ main(idA : int) : int&lt;div&gt;+ detalhar_treino(TA&lt;span style=&quot;background-color: transparent; color: light-dark(rgb(0, 0, 0), rgb(255, 255, 255));&quot;&gt;&amp;nbsp;: obj, idA:int) : void&lt;/span&gt;&lt;/div&gt;&lt;div&gt;&lt;br&gt;&lt;/div&gt;&lt;div&gt;&lt;br&gt;&lt;div&gt;&lt;br&gt;&lt;/div&gt;&lt;div&gt;&lt;br&gt;&lt;/div&gt;&lt;/div&gt;" style="text;strokeColor=none;fillColor=none;align=left;verticalAlign=top;spacingLeft=4;spacingRight=4;overflow=hidden;rotatable=0;points=[[0,0.5],[1,0.5]];portConstraint=eastwest;whiteSpace=wrap;html=1;" vertex="1" parent="YEOKFHbXna3Mkj-zAs45-614">
          <mxGeometry y="40" width="240" height="50" as="geometry" />
        </mxCell>
        <mxCell id="YEOKFHbXna3Mkj-zAs45-616" value="Template User : Java" style="text;align=center;fontStyle=1;verticalAlign=middle;spacingLeft=3;spacingRight=3;strokeColor=none;rotatable=0;points=[[0,0.5],[1,0.5]];portConstraint=eastwest;html=1;fontSize=25;" vertex="1" parent="1">
          <mxGeometry x="-2530" y="842" width="230" height="70" as="geometry" />
        </mxCell>
        <mxCell id="YEOKFHbXna3Mkj-zAs45-617" style="edgeStyle=none;shape=connector;rounded=0;orthogonalLoop=1;jettySize=auto;html=1;exitX=0;exitY=0;exitDx=0;exitDy=174.455;exitPerimeter=0;strokeColor=default;align=center;verticalAlign=middle;fontFamily=Helvetica;fontSize=11;fontColor=default;labelBackgroundColor=default;startFill=0;endArrow=none;endFill=0;dashed=1;startArrow=open;" edge="1" parent="1" source="YEOKFHbXna3Mkj-zAs45-598">
          <mxGeometry relative="1" as="geometry">
            <mxPoint x="-2020" y="1086" as="targetPoint" />
          </mxGeometry>
        </mxCell>
        <mxCell id="YEOKFHbXna3Mkj-zAs45-618" value="&lt;div&gt;&amp;lt;&amp;lt; Static &amp;gt;&amp;gt;&lt;/div&gt;IndexUI" style="swimlane;fontStyle=0;childLayout=stackLayout;horizontal=1;startSize=40;fillColor=none;horizontalStack=0;resizeParent=1;resizeParentMax=0;resizeLast=0;collapsible=1;marginBottom=0;whiteSpace=wrap;html=1;" vertex="1" parent="1">
          <mxGeometry x="-3490" y="105" width="160" height="110" as="geometry" />
        </mxCell>
        <mxCell id="YEOKFHbXna3Mkj-zAs45-619" value="+ main() : void&lt;div&gt;- login() : void&lt;/div&gt;&lt;div&gt;- menuAdm() : void&lt;/div&gt;&lt;div&gt;- logout() : void&lt;/div&gt;&lt;div&gt;&lt;br&gt;&lt;/div&gt;" style="text;strokeColor=none;fillColor=none;align=left;verticalAlign=top;spacingLeft=4;spacingRight=4;overflow=hidden;rotatable=0;points=[[0,0.5],[1,0.5]];portConstraint=eastwest;whiteSpace=wrap;html=1;" vertex="1" parent="YEOKFHbXna3Mkj-zAs45-618">
          <mxGeometry y="40" width="160" height="70" as="geometry" />
        </mxCell>
        <mxCell id="YEOKFHbXna3Mkj-zAs45-620" value="&lt;div&gt;&amp;lt;&amp;lt; Static &amp;gt;&amp;gt;&lt;/div&gt;&lt;div&gt;matriculasUI&lt;/div&gt;" style="swimlane;fontStyle=0;childLayout=stackLayout;horizontal=1;startSize=40;fillColor=none;horizontalStack=0;resizeParent=1;resizeParentMax=0;resizeLast=0;collapsible=1;marginBottom=0;whiteSpace=wrap;html=1;" vertex="1" parent="1">
          <mxGeometry x="-3380" y="-45" width="160" height="100" as="geometry" />
        </mxCell>
        <mxCell id="YEOKFHbXna3Mkj-zAs45-621" value="+ main()&lt;div&gt;+ detalhar_aluno(): void&lt;/div&gt;&lt;div&gt;+ matricular_aluno(): void&lt;/div&gt;&lt;div&gt;&lt;br&gt;&lt;/div&gt;&lt;div&gt;&lt;br&gt;&lt;div&gt;&lt;br&gt;&lt;/div&gt;&lt;div&gt;&lt;br&gt;&lt;/div&gt;&lt;/div&gt;" style="text;strokeColor=none;fillColor=none;align=left;verticalAlign=top;spacingLeft=4;spacingRight=4;overflow=hidden;rotatable=0;points=[[0,0.5],[1,0.5]];portConstraint=eastwest;whiteSpace=wrap;html=1;" vertex="1" parent="YEOKFHbXna3Mkj-zAs45-620">
          <mxGeometry y="40" width="160" height="60" as="geometry" />
        </mxCell>
        <mxCell id="YEOKFHbXna3Mkj-zAs45-622" value="&lt;div&gt;&amp;lt;&amp;lt; Static &amp;gt;&amp;gt;&lt;/div&gt;&lt;div&gt;musculosUI&lt;/div&gt;" style="swimlane;fontStyle=0;childLayout=stackLayout;horizontal=1;startSize=40;fillColor=none;horizontalStack=0;resizeParent=1;resizeParentMax=0;resizeLast=0;collapsible=1;marginBottom=0;whiteSpace=wrap;html=1;" vertex="1" parent="1">
          <mxGeometry x="-3180" y="-25" width="160" height="80" as="geometry" />
        </mxCell>
        <mxCell id="YEOKFHbXna3Mkj-zAs45-623" value="+ main() : void&lt;div&gt;&lt;br&gt;&lt;/div&gt;&lt;div&gt;&lt;br&gt;&lt;div&gt;&lt;br&gt;&lt;/div&gt;&lt;div&gt;&lt;br&gt;&lt;/div&gt;&lt;/div&gt;" style="text;strokeColor=none;fillColor=none;align=left;verticalAlign=top;spacingLeft=4;spacingRight=4;overflow=hidden;rotatable=0;points=[[0,0.5],[1,0.5]];portConstraint=eastwest;whiteSpace=wrap;html=1;" vertex="1" parent="YEOKFHbXna3Mkj-zAs45-622">
          <mxGeometry y="40" width="160" height="40" as="geometry" />
        </mxCell>
        <mxCell id="YEOKFHbXna3Mkj-zAs45-624" value="&lt;div&gt;&amp;lt;&amp;lt; Static &amp;gt;&amp;gt;&lt;/div&gt;&lt;div&gt;CaixaUI&lt;/div&gt;" style="swimlane;fontStyle=0;childLayout=stackLayout;horizontal=1;startSize=40;fillColor=none;horizontalStack=0;resizeParent=1;resizeParentMax=0;resizeLast=0;collapsible=1;marginBottom=0;whiteSpace=wrap;html=1;" vertex="1" parent="1">
          <mxGeometry x="-3810" y="265" width="160" height="70" as="geometry" />
        </mxCell>
        <mxCell id="YEOKFHbXna3Mkj-zAs45-625" value="+ main() : void&lt;div&gt;&lt;br&gt;&lt;/div&gt;&lt;div&gt;&lt;br&gt;&lt;div&gt;&lt;br&gt;&lt;/div&gt;&lt;div&gt;&lt;br&gt;&lt;/div&gt;&lt;/div&gt;" style="text;strokeColor=none;fillColor=none;align=left;verticalAlign=top;spacingLeft=4;spacingRight=4;overflow=hidden;rotatable=0;points=[[0,0.5],[1,0.5]];portConstraint=eastwest;whiteSpace=wrap;html=1;" vertex="1" parent="YEOKFHbXna3Mkj-zAs45-624">
          <mxGeometry y="40" width="160" height="30" as="geometry" />
        </mxCell>
        <mxCell id="YEOKFHbXna3Mkj-zAs45-626" value="&lt;div&gt;&amp;lt;&amp;lt; Static &amp;gt;&amp;gt;&lt;/div&gt;&lt;div&gt;PagamentoUI&lt;/div&gt;" style="swimlane;fontStyle=0;childLayout=stackLayout;horizontal=1;startSize=40;fillColor=none;horizontalStack=0;resizeParent=1;resizeParentMax=0;resizeLast=0;collapsible=1;marginBottom=0;whiteSpace=wrap;html=1;" vertex="1" parent="1">
          <mxGeometry x="-3810" y="115" width="160" height="80" as="geometry" />
        </mxCell>
        <mxCell id="YEOKFHbXna3Mkj-zAs45-627" value="+ main() : void&lt;div&gt;&lt;div&gt;&lt;br&gt;&lt;div&gt;&lt;br&gt;&lt;/div&gt;&lt;div&gt;&lt;br&gt;&lt;/div&gt;&lt;/div&gt;&lt;/div&gt;" style="text;strokeColor=none;fillColor=none;align=left;verticalAlign=top;spacingLeft=4;spacingRight=4;overflow=hidden;rotatable=0;points=[[0,0.5],[1,0.5]];portConstraint=eastwest;whiteSpace=wrap;html=1;" vertex="1" parent="YEOKFHbXna3Mkj-zAs45-626">
          <mxGeometry y="40" width="160" height="40" as="geometry" />
        </mxCell>
        <mxCell id="YEOKFHbXna3Mkj-zAs45-628" value="&lt;div&gt;&amp;lt;&amp;lt; Static &amp;gt;&amp;gt;&lt;/div&gt;&lt;div&gt;TreinoUI&lt;/div&gt;" style="swimlane;fontStyle=0;childLayout=stackLayout;horizontal=1;startSize=40;fillColor=none;horizontalStack=0;resizeParent=1;resizeParentMax=0;resizeLast=0;collapsible=1;marginBottom=0;whiteSpace=wrap;html=1;" vertex="1" parent="1">
          <mxGeometry x="-3180" y="265" width="180" height="80" as="geometry" />
        </mxCell>
        <mxCell id="YEOKFHbXna3Mkj-zAs45-629" value="+ main() : void&lt;div&gt;+ detalhar_treino(idT : int) : void&lt;/div&gt;&lt;div&gt;&lt;br&gt;&lt;/div&gt;&lt;div&gt;&lt;br&gt;&lt;div&gt;&lt;br&gt;&lt;/div&gt;&lt;div&gt;&lt;br&gt;&lt;/div&gt;&lt;/div&gt;" style="text;strokeColor=none;fillColor=none;align=left;verticalAlign=top;spacingLeft=4;spacingRight=4;overflow=hidden;rotatable=0;points=[[0,0.5],[1,0.5]];portConstraint=eastwest;whiteSpace=wrap;html=1;" vertex="1" parent="YEOKFHbXna3Mkj-zAs45-628">
          <mxGeometry y="40" width="180" height="40" as="geometry" />
        </mxCell>
        <mxCell id="YEOKFHbXna3Mkj-zAs45-630" value="&lt;div&gt;&amp;lt;&amp;lt; Static &amp;gt;&amp;gt;&lt;/div&gt;&lt;div&gt;AlunosUI&lt;/div&gt;" style="swimlane;fontStyle=0;childLayout=stackLayout;horizontal=1;startSize=40;fillColor=none;horizontalStack=0;resizeParent=1;resizeParentMax=0;resizeLast=0;collapsible=1;marginBottom=0;whiteSpace=wrap;html=1;" vertex="1" parent="1">
          <mxGeometry x="-3830" y="-105" width="180" height="160" as="geometry" />
        </mxCell>
        <mxCell id="YEOKFHbXna3Mkj-zAs45-631" value="&amp;nbsp;- page : str&lt;div&gt;&amp;nbsp;- last_aluno : obj&lt;/div&gt;" style="rounded=0;whiteSpace=wrap;html=1;align=left;" vertex="1" parent="YEOKFHbXna3Mkj-zAs45-630">
          <mxGeometry y="40" width="180" height="40" as="geometry" />
        </mxCell>
        <mxCell id="YEOKFHbXna3Mkj-zAs45-632" value="+ main() : void&lt;div&gt;+ detalhar_aluno(idA : int) : void&lt;/div&gt;&lt;div&gt;+ cadastrar_aluno() : void&lt;/div&gt;&lt;div&gt;+ atualizar_aluno(idA : int) void&lt;/div&gt;&lt;div&gt;&lt;br&gt;&lt;div&gt;&lt;br&gt;&lt;/div&gt;&lt;div&gt;&lt;br&gt;&lt;/div&gt;&lt;/div&gt;" style="text;strokeColor=none;fillColor=none;align=left;verticalAlign=top;spacingLeft=4;spacingRight=4;overflow=hidden;rotatable=0;points=[[0,0.5],[1,0.5]];portConstraint=eastwest;whiteSpace=wrap;html=1;" vertex="1" parent="YEOKFHbXna3Mkj-zAs45-630">
          <mxGeometry y="80" width="180" height="80" as="geometry" />
        </mxCell>
        <mxCell id="YEOKFHbXna3Mkj-zAs45-633" value="&lt;div&gt;&amp;lt;&amp;lt; Static &amp;gt;&amp;gt;&lt;/div&gt;&lt;div&gt;medidasUI&lt;/div&gt;" style="swimlane;fontStyle=0;childLayout=stackLayout;horizontal=1;startSize=40;fillColor=none;horizontalStack=0;resizeParent=1;resizeParentMax=0;resizeLast=0;collapsible=1;marginBottom=0;whiteSpace=wrap;html=1;" vertex="1" parent="1">
          <mxGeometry x="-3180" y="115" width="210" height="80" as="geometry" />
        </mxCell>
        <mxCell id="YEOKFHbXna3Mkj-zAs45-634" value="+ main() :void&lt;div&gt;+ detalhar_medidas(idm : int) : void&lt;/div&gt;&lt;div&gt;&lt;br&gt;&lt;/div&gt;&lt;div&gt;&lt;br&gt;&lt;div&gt;&lt;br&gt;&lt;/div&gt;&lt;div&gt;&lt;br&gt;&lt;/div&gt;&lt;/div&gt;" style="text;strokeColor=none;fillColor=none;align=left;verticalAlign=top;spacingLeft=4;spacingRight=4;overflow=hidden;rotatable=0;points=[[0,0.5],[1,0.5]];portConstraint=eastwest;whiteSpace=wrap;html=1;" vertex="1" parent="YEOKFHbXna3Mkj-zAs45-633">
          <mxGeometry y="40" width="210" height="40" as="geometry" />
        </mxCell>
        <mxCell id="YEOKFHbXna3Mkj-zAs45-635" value="&lt;div&gt;&amp;lt;&amp;lt; Static &amp;gt;&amp;gt;&lt;/div&gt;&lt;div&gt;PlanosUI&lt;/div&gt;" style="swimlane;fontStyle=0;childLayout=stackLayout;horizontal=1;startSize=40;fillColor=none;horizontalStack=0;resizeParent=1;resizeParentMax=0;resizeLast=0;collapsible=1;marginBottom=0;whiteSpace=wrap;html=1;" vertex="1" parent="1">
          <mxGeometry x="-3590" y="-65" width="160" height="120" as="geometry" />
        </mxCell>
        <mxCell id="YEOKFHbXna3Mkj-zAs45-636" value="&amp;nbsp;- page : str&lt;div&gt;&amp;nbsp;- last_aluno : obj&lt;/div&gt;" style="rounded=0;whiteSpace=wrap;html=1;align=left;" vertex="1" parent="YEOKFHbXna3Mkj-zAs45-635">
          <mxGeometry y="40" width="160" height="40" as="geometry" />
        </mxCell>
        <mxCell id="YEOKFHbXna3Mkj-zAs45-637" value="+ main() : void&lt;div&gt;&lt;br&gt;&lt;/div&gt;&lt;div&gt;&lt;br&gt;&lt;/div&gt;&lt;div&gt;&lt;br&gt;&lt;div&gt;&lt;br&gt;&lt;/div&gt;&lt;div&gt;&lt;br&gt;&lt;/div&gt;&lt;/div&gt;" style="text;strokeColor=none;fillColor=none;align=left;verticalAlign=top;spacingLeft=4;spacingRight=4;overflow=hidden;rotatable=0;points=[[0,0.5],[1,0.5]];portConstraint=eastwest;whiteSpace=wrap;html=1;" vertex="1" parent="YEOKFHbXna3Mkj-zAs45-635">
          <mxGeometry y="80" width="160" height="40" as="geometry" />
        </mxCell>
        <mxCell id="YEOKFHbXna3Mkj-zAs45-638" value="&lt;div&gt;&amp;lt;&amp;lt; Static &amp;gt;&amp;gt;&lt;/div&gt;&lt;div&gt;partCorpoUI&lt;/div&gt;" style="swimlane;fontStyle=0;childLayout=stackLayout;horizontal=1;startSize=40;fillColor=none;horizontalStack=0;resizeParent=1;resizeParentMax=0;resizeLast=0;collapsible=1;marginBottom=0;whiteSpace=wrap;html=1;" vertex="1" parent="1">
          <mxGeometry x="-3490" y="265" width="160" height="70" as="geometry" />
        </mxCell>
        <mxCell id="YEOKFHbXna3Mkj-zAs45-639" value="+ main() : void&lt;div&gt;&lt;br&gt;&lt;/div&gt;&lt;div&gt;&lt;br&gt;&lt;/div&gt;&lt;div&gt;&lt;br&gt;&lt;div&gt;&lt;br&gt;&lt;/div&gt;&lt;div&gt;&lt;br&gt;&lt;/div&gt;&lt;/div&gt;" style="text;strokeColor=none;fillColor=none;align=left;verticalAlign=top;spacingLeft=4;spacingRight=4;overflow=hidden;rotatable=0;points=[[0,0.5],[1,0.5]];portConstraint=eastwest;whiteSpace=wrap;html=1;" vertex="1" parent="YEOKFHbXna3Mkj-zAs45-638">
          <mxGeometry y="40" width="160" height="30" as="geometry" />
        </mxCell>
        <mxCell id="YEOKFHbXna3Mkj-zAs45-640" style="rounded=0;orthogonalLoop=1;jettySize=auto;html=1;exitX=0.5;exitY=0;exitDx=0;exitDy=0;entryX=0.49;entryY=1.006;entryDx=0;entryDy=0;entryPerimeter=0;endArrow=open;endFill=0;dashed=1;" edge="1" parent="1" source="YEOKFHbXna3Mkj-zAs45-618" target="YEOKFHbXna3Mkj-zAs45-637">
          <mxGeometry relative="1" as="geometry" />
        </mxCell>
        <mxCell id="YEOKFHbXna3Mkj-zAs45-641" style="rounded=0;orthogonalLoop=1;jettySize=auto;html=1;exitX=0.5;exitY=0;exitDx=0;exitDy=0;entryX=0.49;entryY=1.006;entryDx=0;entryDy=0;entryPerimeter=0;endArrow=open;endFill=0;dashed=1;" edge="1" parent="1" source="YEOKFHbXna3Mkj-zAs45-618">
          <mxGeometry relative="1" as="geometry">
            <mxPoint x="-3198" y="105" as="sourcePoint" />
            <mxPoint x="-3300" y="55" as="targetPoint" />
          </mxGeometry>
        </mxCell>
        <mxCell id="YEOKFHbXna3Mkj-zAs45-642" style="rounded=0;orthogonalLoop=1;jettySize=auto;html=1;exitX=1;exitY=0;exitDx=0;exitDy=0;entryX=-0.012;entryY=1.006;entryDx=0;entryDy=0;entryPerimeter=0;endArrow=open;endFill=0;dashed=1;" edge="1" parent="1" source="YEOKFHbXna3Mkj-zAs45-618" target="YEOKFHbXna3Mkj-zAs45-623">
          <mxGeometry relative="1" as="geometry">
            <mxPoint x="-3390" y="125" as="sourcePoint" />
            <mxPoint x="-3492" y="75" as="targetPoint" />
          </mxGeometry>
        </mxCell>
        <mxCell id="YEOKFHbXna3Mkj-zAs45-643" style="rounded=0;orthogonalLoop=1;jettySize=auto;html=1;exitX=0;exitY=0;exitDx=0;exitDy=0;entryX=0.49;entryY=1.006;entryDx=0;entryDy=0;entryPerimeter=0;endArrow=open;endFill=0;dashed=1;" edge="1" parent="1" source="YEOKFHbXna3Mkj-zAs45-618">
          <mxGeometry relative="1" as="geometry">
            <mxPoint x="-3548" y="105" as="sourcePoint" />
            <mxPoint x="-3650" y="55" as="targetPoint" />
          </mxGeometry>
        </mxCell>
        <mxCell id="YEOKFHbXna3Mkj-zAs45-644" style="rounded=0;orthogonalLoop=1;jettySize=auto;html=1;exitX=0;exitY=0.143;exitDx=0;exitDy=0;entryX=0.49;entryY=1.006;entryDx=0;entryDy=0;entryPerimeter=0;endArrow=open;endFill=0;dashed=1;exitPerimeter=0;" edge="1" parent="1" source="YEOKFHbXna3Mkj-zAs45-619">
          <mxGeometry relative="1" as="geometry">
            <mxPoint x="-3548" y="205" as="sourcePoint" />
            <mxPoint x="-3650" y="155" as="targetPoint" />
          </mxGeometry>
        </mxCell>
        <mxCell id="YEOKFHbXna3Mkj-zAs45-645" style="rounded=0;orthogonalLoop=1;jettySize=auto;html=1;entryX=0;entryY=0.5;entryDx=0;entryDy=0;endArrow=open;endFill=0;dashed=1;" edge="1" parent="1" target="YEOKFHbXna3Mkj-zAs45-633">
          <mxGeometry relative="1" as="geometry">
            <mxPoint x="-3330" y="155" as="sourcePoint" />
            <mxPoint x="-3462" y="105" as="targetPoint" />
          </mxGeometry>
        </mxCell>
        <mxCell id="YEOKFHbXna3Mkj-zAs45-646" style="rounded=0;orthogonalLoop=1;jettySize=auto;html=1;exitX=-0.007;exitY=0.996;exitDx=0;exitDy=0;entryX=0.49;entryY=1.006;entryDx=0;entryDy=0;entryPerimeter=0;endArrow=open;endFill=0;dashed=1;exitPerimeter=0;" edge="1" parent="1" source="YEOKFHbXna3Mkj-zAs45-619">
          <mxGeometry relative="1" as="geometry">
            <mxPoint x="-3548" y="315" as="sourcePoint" />
            <mxPoint x="-3650" y="265" as="targetPoint" />
          </mxGeometry>
        </mxCell>
        <mxCell id="YEOKFHbXna3Mkj-zAs45-647" style="rounded=0;orthogonalLoop=1;jettySize=auto;html=1;exitX=1.006;exitY=1.025;exitDx=0;exitDy=0;entryX=0;entryY=0;entryDx=0;entryDy=0;endArrow=open;endFill=0;dashed=1;exitPerimeter=0;" edge="1" parent="1" source="YEOKFHbXna3Mkj-zAs45-619" target="YEOKFHbXna3Mkj-zAs45-628">
          <mxGeometry relative="1" as="geometry">
            <mxPoint x="-3220" y="275" as="sourcePoint" />
            <mxPoint x="-3322" y="225" as="targetPoint" />
          </mxGeometry>
        </mxCell>
        <mxCell id="YEOKFHbXna3Mkj-zAs45-648" style="rounded=0;orthogonalLoop=1;jettySize=auto;html=1;exitX=0.499;exitY=1.033;exitDx=0;exitDy=0;entryX=0.5;entryY=0;entryDx=0;entryDy=0;endArrow=open;endFill=0;dashed=1;exitPerimeter=0;" edge="1" parent="1" source="YEOKFHbXna3Mkj-zAs45-619" target="YEOKFHbXna3Mkj-zAs45-638">
          <mxGeometry relative="1" as="geometry">
            <mxPoint x="-3330" y="185" as="sourcePoint" />
            <mxPoint x="-3432" y="135" as="targetPoint" />
          </mxGeometry>
        </mxCell>
        <mxCell id="YEOKFHbXna3Mkj-zAs45-649" value="Template Admin : Python" style="text;align=center;fontStyle=1;verticalAlign=middle;spacingLeft=3;spacingRight=3;strokeColor=none;rotatable=0;points=[[0,0.5],[1,0.5]];portConstraint=eastwest;html=1;fontSize=25;" vertex="1" parent="1">
          <mxGeometry x="-3530" y="-135" width="230" height="70" as="geometry" />
        </mxCell>
        <mxCell id="YEOKFHbXna3Mkj-zAs45-650" style="edgeStyle=none;shape=connector;rounded=0;orthogonalLoop=1;jettySize=auto;html=1;exitX=1;exitY=0.51;exitDx=0;exitDy=0;exitPerimeter=0;entryX=0;entryY=0;entryDx=0;entryDy=517;entryPerimeter=0;strokeColor=default;align=center;verticalAlign=middle;fontFamily=Helvetica;fontSize=11;fontColor=default;labelBackgroundColor=default;startFill=0;endArrow=open;dashed=1;endFill=0;" edge="1" parent="1" source="YEOKFHbXna3Mkj-zAs45-436" target="YEOKFHbXna3Mkj-zAs45-437">
          <mxGeometry relative="1" as="geometry" />
        </mxCell>
        <mxCell id="YEOKFHbXna3Mkj-zAs45-651" style="rounded=0;orthogonalLoop=1;jettySize=auto;html=1;exitX=0;exitY=1;exitDx=0;exitDy=0;entryX=1;entryY=0;entryDx=0;entryDy=0;endArrow=open;endFill=0;dashed=1;" edge="1" parent="1" source="YEOKFHbXna3Mkj-zAs45-605" target="YEOKFHbXna3Mkj-zAs45-612">
          <mxGeometry relative="1" as="geometry">
            <mxPoint x="-2520" y="1262" as="sourcePoint" />
            <mxPoint x="-2480" y="1312" as="targetPoint" />
          </mxGeometry>
        </mxCell>
        <mxCell id="YEOKFHbXna3Mkj-zAs45-652" style="rounded=0;orthogonalLoop=1;jettySize=auto;html=1;exitX=1;exitY=1.005;exitDx=0;exitDy=0;entryX=0;entryY=0;entryDx=0;entryDy=0;endArrow=open;endFill=0;dashed=1;exitPerimeter=0;" edge="1" parent="1" source="YEOKFHbXna3Mkj-zAs45-607" target="YEOKFHbXna3Mkj-zAs45-614">
          <mxGeometry relative="1" as="geometry">
            <mxPoint x="-2345" y="1212" as="sourcePoint" />
            <mxPoint x="-2447" y="1162" as="targetPoint" />
          </mxGeometry>
        </mxCell>
        <mxCell id="YEOKFHbXna3Mkj-zAs45-653" style="rounded=0;orthogonalLoop=1;jettySize=auto;html=1;exitX=1;exitY=1.005;exitDx=0;exitDy=0;entryX=0.003;entryY=0.981;entryDx=0;entryDy=0;endArrow=open;endFill=0;dashed=1;exitPerimeter=0;entryPerimeter=0;" edge="1" parent="1" target="YEOKFHbXna3Mkj-zAs45-611">
          <mxGeometry relative="1" as="geometry">
            <mxPoint x="-2345" y="1062" as="sourcePoint" />
            <mxPoint x="-2310" y="1071" as="targetPoint" />
          </mxGeometry>
        </mxCell>
        <mxCell id="YEOKFHbXna3Mkj-zAs45-654" style="rounded=0;orthogonalLoop=1;jettySize=auto;html=1;exitX=1;exitY=1.005;exitDx=0;exitDy=0;entryX=0.999;entryY=1.037;entryDx=0;entryDy=0;endArrow=open;endFill=0;dashed=1;exitPerimeter=0;entryPerimeter=0;" edge="1" parent="1" target="YEOKFHbXna3Mkj-zAs45-609">
          <mxGeometry relative="1" as="geometry">
            <mxPoint x="-2485" y="1063" as="sourcePoint" />
            <mxPoint x="-2440" y="1022" as="targetPoint" />
          </mxGeometry>
        </mxCell>
      </root>
    </mxGraphModel>
  </diagram>
</mxfile>
